999
dxfrw 0.6.3
  0
SECTION
  2
HEADER
  9
$ACADVER
  1
AC1021
  9
$DWGCODEPAGE
  3
ANSI_1252
  9
$INSBASE
 10
0
 20
0
 30
0
  9
$EXTMIN
 10
-12.5
 20
-37.5
 30
0
  9
$EXTMAX
 10
12.5
 20
12.5
 30
0
  9
$LIMMIN
 10
0
 20
0
  9
$LIMMAX
 10
420
 20
297
  9
$ORTHOMODE
 70
    0
  9
$REGENMODE
 70
    1
  9
$FILLMODE
 70
    1
  9
$QTEXTMODE
 70
    0
  9
$MIRRTEXT
 70
    0
  9
$LTSCALE
 40
1
  9
$ATTMODE
 70
    0
  9
$TEXTSIZE
 40
2.5
  9
$TRACEWID
 40
15.68
  9
$TEXTSTYLE
  7
STANDARD
  9
$CLAYER
  8
Text
  9
$CELTYPE
  6
BYLAYER
  9
$CECOLOR
 62
  256
  9
$CELTSCALE
 40
1
  9
$DISPSILH
 70
    0
  9
$DIMSCALE
 40
2.5
  9
$DIMASZ
 40
2.5
  9
$DIMEXO
 40
0.625
  9
$DIMDLI
 40
3.75
  9
$DIMRND
 40
0
  9
$DIMDLE
 40
0
  9
$DIMEXE
 40
1.25
  9
$DIMTP
 40
0
  9
$DIMTM
 40
0
  9
$DIMTXT
 40
2.5
  9
$DIMCEN
 40
2.5
  9
$DIMTSZ
 40
0
  9
$DIMTOL
 70
    0
  9
$DIMLIM
 70
    0
  9
$DIMTIH
 70
    0
  9
$DIMTOH
 70
    0
  9
$DIMSE1
 70
    0
  9
$DIMSE2
 70
    0
  9
$DIMTAD
 70
    1
  9
$DIMZIN
 70
    8
  9
$DIMBLK
  1

  9
$DIMASO
 70
    1
  9
$DIMSHO
 70
    1
  9
$DIMPOST
  1

  9
$DIMAPOST
  1

  9
$DIMALT
 70
    0
  9
$DIMALTD
 70
    3
  9
$DIMALTF
 40
0.03937
  9
$DIMLFAC
 40
1
  9
$DIMTOFL
 70
    1
  9
$DIMTVP
 40
0
  9
$DIMTIX
 70
    0
  9
$DIMSOXD
 70
    0
  9
$DIMSAH
 70
    0
  9
$DIMBLK1
  1

  9
$DIMBLK2
  1

  9
$DIMSTYLE
  2
STANDARD
  9
$DIMCLRD
 70
    0
  9
$DIMCLRE
 70
    0
  9
$DIMCLRT
 70
    0
  9
$DIMTFAC
 40
1
  9
$DIMGAP
 40
0.625
  9
$DIMJUST
 70
    0
  9
$DIMSD1
 70
    0
  9
$DIMSD2
 70
    0
  9
$DIMTOLJ
 70
    0
  9
$DIMTZIN
 70
    8
  9
$DIMALTZ
 70
    0
  9
$DIMALTTZ
 70
    0
  9
$DIMUPT
 70
    0
  9
$DIMDEC
 70
    2
  9
$DIMTDEC
 70
    2
  9
$DIMALTU
 70
    2
  9
$DIMALTTD
 70
    3
  9
$DIMTXSTY
  7
STANDARD
  9
$DIMAUNIT
 70
    0
  9
$DIMADEC
 70
    0
  9
$DIMALTRND
 40
0
  9
$DIMAZIN
 70
    0
  9
$DIMDSEP
 70
   44
  9
$DIMATFIT
 70
    3
  9
$DIMFRAC
 70
    0
  9
$DIMLDRBLK
  1
STANDARD
  9
$DIMLUNIT
 70
    2
  9
$DIMLWD
 70
   -2
  9
$DIMLWE
 70
   -2
  9
$DIMTMOVE
 70
    0
  9
$DIMFXL
 40
1
  9
$DIMFXLON
 70
    0
  9
$DIMJOGANG
 40
0.7854
  9
$DIMTFILL
 70
    0
  9
$DIMTFILLCLR
 70
    0
  9
$DIMARCSYM
 70
    0
  9
$DIMLTYPE
  6

  9
$DIMLTEX1
  6

  9
$DIMLTEX2
  6

  9
$LUNITS
 70
    2
  9
$LUPREC
 70
    4
  9
$SKETCHINC
 40
1
  9
$FILLETRAD
 40
0
  9
$AUNITS
 70
    0
  9
$AUPREC
 70
    2
  9
$MENU
  1
.
  9
$ELEVATION
 40
0
  9
$PELEVATION
 40
0
  9
$THICKNESS
 40
0
  9
$LIMCHECK
 70
    0
  9
$CHAMFERA
 40
0
  9
$CHAMFERB
 40
0
  9
$CHAMFERC
 40
0
  9
$CHAMFERD
 40
0
  9
$SKPOLY
 70
    0
  9
$USRTIMER
 70
    1
  9
$ANGBASE
 50
0
  9
$ANGDIR
 70
    0
  9
$PDMODE
 70
   96
  9
$PDSIZE
 40
-2
  9
$PLINEWID
 40
0
  9
$SPLFRAME
 70
    0
  9
$SPLINETYPE
 70
    2
  9
$SPLINESEGS
 70
    8
  9
$HANDSEED
  5
20000
  9
$SURFTAB1
 70
    6
  9
$SURFTAB2
 70
    6
  9
$SURFTYPE
 70
    6
  9
$SURFU
 70
    6
  9
$SURFV
 70
    6
  9
$UCSBASE
  2

  9
$UCSNAME
  2

  9
$UCSORG
 10
0
 20
0
 30
0
  9
$UCSXDIR
 10
1
 20
0
 30
0
  9
$UCSYDIR
 10
0
 20
1
 30
0
  9
$UCSORTHOREF
  2

  9
$UCSORTHOVIEW
 70
    0
  9
$UCSORGTOP
 10
0
 20
0
 30
0
  9
$UCSORGBOTTOM
 10
0
 20
0
 30
0
  9
$UCSORGLEFT
 10
0
 20
0
 30
0
  9
$UCSORGRIGHT
 10
0
 20
0
 30
0
  9
$UCSORGFRONT
 10
0
 20
0
 30
0
  9
$UCSORGBACK
 10
0
 20
0
 30
0
  9
$PUCSBASE
  2

  9
$PUCSNAME
  2

  9
$PUCSORG
 10
0
 20
0
 30
0
  9
$PUCSXDIR
 10
1
 20
0
 30
0
  9
$PUCSYDIR
 10
0
 20
1
 30
0
  9
$PUCSORTHOREF
  2

  9
$PUCSORTHOVIEW
 70
    0
  9
$PUCSORGTOP
 10
0
 20
0
 30
0
  9
$PUCSORGBOTTOM
 10
0
 20
0
 30
0
  9
$PUCSORGLEFT
 10
0
 20
0
 30
0
  9
$PUCSORGRIGHT
 10
0
 20
0
 30
0
  9
$PUCSORGFRONT
 10
0
 20
0
 30
0
  9
$PUCSORGBACK
 10
0
 20
0
 30
0
  9
$USERI1
 70
    0
  9
$USERI2
 70
    0
  9
$USERI3
 70
    0
  9
$USERI4
 70
    0
  9
$USERI5
 70
    0
  9
$USERR1
 40
0
  9
$USERR2
 40
0
  9
$USERR3
 40
0
  9
$USERR4
 40
0
  9
$USERR5
 40
0
  9
$WORLDVIEW
 70
    1
  9
$SHADEDGE
 70
    3
  9
$SHADEDIF
 70
   70
  9
$TILEMODE
 70
    1
  9
$MAXACTVP
 70
   64
  9
$PINSBASE
 10
0
 20
0
 30
0
  9
$PLIMCHECK
 70
    0
  9
$PEXTMIN
 10
0
 20
0
 30
0
  9
$PEXTMAX
 10
0
 20
0
 30
0
  9
$GRIDMODE
 70
    1
  9
$SNAPSTYLE
 70
    1
  9
$PLIMMIN
 10
0
 20
0
  9
$PLIMMAX
 10
297
 20
210
  9
$UNITMODE
 70
    0
  9
$VISRETAIN
 70
    1
  9
$PLINEGEN
 70
    0
  9
$PSLTSCALE
 70
    1
  9
$TREEDEPTH
 70
 3020
  9
$CMLSTYLE
  2
Standard
  9
$CMLJUST
 70
    0
  9
$CMLSCALE
 40
20
  9
$PROXYGRAPHICS
 70
    1
  9
$MEASUREMENT
 70
    1
  9
$CELWEIGHT
370
   -1
  9
$ENDCAPS
280
    0
  9
$JOINSTYLE
280
    0
  9
$LWDISPLAY
290
    0
  9
$INSUNITS
 70
    4
  9
$HYPERLINKBASE
  1

  9
$STYLESHEET
  1

  9
$XEDIT
290
    1
  9
$CEPSNTYPE
380
    0
  9
$PSTYLEMODE
290
    1
  9
$EXTNAMES
290
    1
  9
$PSVPSCALE
 40
1
  9
$OLESTARTUP
290
    0
  9
$SORTENTS
280
  127
  9
$INDEXCTL
280
    0
  9
$HIDETEXT
280
    1
  9
$XCLIPFRAME
290
    0
  9
$HALOGAP
280
    0
  9
$OBSCOLOR
 70
  257
  9
$OBSLTYPE
280
    0
  9
$INTERSECTIONDISPLAY
280
    0
  9
$INTERSECTIONCOLOR
 70
  257
  9
$DIMASSOC
280
    1
  9
$PROJECTNAME
  1

  9
$CAMERADISPLAY
290
    0
  9
$LENSLENGTH
 40
50
  9
$CAMERAHEIGHT
 40
0
  9
$STEPSPERSEC
 40
2
  9
$STEPSIZE
 40
50
  9
$3DDWFPREC
 40
2
  9
$PSOLWIDTH
 40
5
  9
$PSOLHEIGHT
 40
80
  9
$LOFTANG1
 40
1.570796326794897
  9
$LOFTANG2
 40
1.570796326794897
  9
$LOFTMAG1
 40
0
  9
$LOFTMAG2
 40
0
  9
$LOFTPARAM
 70
    7
  9
$LOFTNORMALS
280
    1
  9
$LATITUDE
 40
1
  9
$LONGITUDE
 40
1
  9
$NORTHDIRECTION
 40
0
  9
$TIMEZONE
 70
-8000
  9
$LIGHTGLYPHDISPLAY
280
    1
  9
$TILEMODELIGHTSYNCH
280
    1
  9
$SOLIDHIST
280
    1
  9
$SHOWHIST
280
    1
  9
$DWFFRAME
280
    2
  9
$DGNFRAME
280
    0
  9
$REALWORLDSCALE
290
    1
  9
$INTERFERECOLOR
 62
    1
  9
$CSHADOW
280
    0
  9
$SHADOWPLANELOCATION
 40
0
  0
ENDSEC
  0
SECTION
  2
CLASSES
  0
ENDSEC
  0
SECTION
  2
TABLES
  0
TABLE
  2
VPORT
  5
8
330
0
100
AcDbSymbolTable
 70
    1
  0
VPORT
  5
31
330
2
100
AcDbSymbolTableRecord
100
AcDbViewportTableRecord
  2
*ACTIVE
 70
    0
 10
0
 20
0
 11
1
 21
1
 12
35.68840579710145
 22
6.748188405797102
 13
0
 23
0
 14
10
 24
10
 15
10
 25
10
 16
0
 26
0
 36
1
 17
0
 27
0
 37
0
 40
51.81159420289855
 41
2.755244755244755
 42
50
 43
0
 44
0
 50
0
 51
0
 71
    0
 72
  100
 73
    1
 74
    3
 75
    0
 76
    1
 77
    1
 78
    0
281
    0
 65
    1
110
0
120
0
130
0
111
1
121
0
131
0
112
0
122
1
132
0
 79
    0
146
0
348
10020
 60
    7
 61
    5
292
1
282
    1
141
0
142
0
 63
  250
421
3358443
  0
ENDTAB
  0
TABLE
  2
LTYPE
  5
5
330
0
100
AcDbSymbolTable
 70
    4
  0
LTYPE
  5
14
330
5
100
AcDbSymbolTableRecord
100
AcDbLinetypeTableRecord
  2
ByBlock
 70
    0
  3

 72
   65
 73
    0
 40
0
  0
LTYPE
  5
15
330
5
100
AcDbSymbolTableRecord
100
AcDbLinetypeTableRecord
  2
ByLayer
 70
    0
  3

 72
   65
 73
    0
 40
0
  0
LTYPE
  5
16
330
5
100
AcDbSymbolTableRecord
100
AcDbLinetypeTableRecord
  2
Continuous
 70
    0
  3
Solid line
 72
   65
 73
    0
 40
0
  0
LTYPE
  5
32
330
5
100
AcDbSymbolTableRecord
100
AcDbLinetypeTableRecord
  2
DOT
 70
    0
  3
Dot . . . . . . . . . . . . . . . . . . . . . .
 72
   65
 73
    2
 40
6.35
 49
0
 74
    0
 49
-6.35
 74
    0
  0
LTYPE
  5
33
330
5
100
AcDbSymbolTableRecord
100
AcDbLinetypeTableRecord
  2
DOTTINY
 70
    0
  3
Dot (.15x) .....................................
 72
   65
 73
    2
 40
0.9525
 49
0
 74
    0
 49
-0.9525
 74
    0
  0
LTYPE
  5
34
330
5
100
AcDbSymbolTableRecord
100
AcDbLinetypeTableRecord
  2
DOT2
 70
    0
  3
Dot (.5x) .....................................
 72
   65
 73
    2
 40
3.175
 49
0
 74
    0
 49
-3.175
 74
    0
  0
LTYPE
  5
35
330
5
100
AcDbSymbolTableRecord
100
AcDbLinetypeTableRecord
  2
DOTX2
 70
    0
  3
Dot (2x) .  .  .  .  .  .  .  .  .  .  .  .  .
 72
   65
 73
    2
 40
12.7
 49
0
 74
    0
 49
-12.7
 74
    0
  0
LTYPE
  5
36
330
5
100
AcDbSymbolTableRecord
100
AcDbLinetypeTableRecord
  2
DASHED
 70
    0
  3
Dashed _ _ _ _ _ _ _ _ _ _ _ _ _ _ _ _ _
 72
   65
 73
    2
 40
19.05
 49
12.7
 74
    0
 49
-6.35
 74
    0
  0
LTYPE
  5
37
330
5
100
AcDbSymbolTableRecord
100
AcDbLinetypeTableRecord
  2
DASHEDTINY
 70
    0
  3
Dashed (.15x) _ _ _ _ _ _ _ _ _ _ _ _ _ _ _ _ _
 72
   65
 73
    2
 40
2.8575
 49
1.905
 74
    0
 49
-0.9525
 74
    0
  0
LTYPE
  5
38
330
5
100
AcDbSymbolTableRecord
100
AcDbLinetypeTableRecord
  2
DASHED2
 70
    0
  3
Dashed (.5x) _ _ _ _ _ _ _ _ _ _ _ _ _ _ _ _ _
 72
   65
 73
    2
 40
9.524999999999999
 49
6.35
 74
    0
 49
-3.175
 74
    0
  0
LTYPE
  5
39
330
5
100
AcDbSymbolTableRecord
100
AcDbLinetypeTableRecord
  2
DASHEDX2
 70
    0
  3
Dashed (2x) ____  ____  ____  ____  ____  ___
 72
   65
 73
    2
 40
38.09999999999999
 49
25.4
 74
    0
 49
-12.7
 74
    0
  0
LTYPE
  5
3A
330
5
100
AcDbSymbolTableRecord
100
AcDbLinetypeTableRecord
  2
DASHDOT
 70
    0
  3
Dash dot __ . __ . __ . __ . __ . __ . __ . __
 72
   65
 73
    4
 40
25.4
 49
12.7
 74
    0
 49
-6.35
 74
    0
 49
0
 74
    0
 49
-6.35
 74
    0
  0
LTYPE
  5
3B
330
5
100
AcDbSymbolTableRecord
100
AcDbLinetypeTableRecord
  2
DASHDOTTINY
 70
    0
  3
Dash dot (.15x) _._._._._._._._._._._._._._._.
 72
   65
 73
    4
 40
3.81
 49
1.905
 74
    0
 49
-0.9525
 74
    0
 49
0
 74
    0
 49
-0.9525
 74
    0
  0
LTYPE
  5
3C
330
5
100
AcDbSymbolTableRecord
100
AcDbLinetypeTableRecord
  2
DASHDOT2
 70
    0
  3
Dash dot (.5x) _._._._._._._._._._._._._._._.
 72
   65
 73
    4
 40
12.7
 49
6.35
 74
    0
 49
-3.175
 74
    0
 49
0
 74
    0
 49
-3.175
 74
    0
  0
LTYPE
  5
3D
330
5
100
AcDbSymbolTableRecord
100
AcDbLinetypeTableRecord
  2
DASHDOTX2
 70
    0
  3
Dash dot (2x) ____  .  ____  .  ____  .  ___
 72
   65
 73
    4
 40
50.8
 49
25.4
 74
    0
 49
-12.7
 74
    0
 49
0
 74
    0
 49
-12.7
 74
    0
  0
LTYPE
  5
3E
330
5
100
AcDbSymbolTableRecord
100
AcDbLinetypeTableRecord
  2
DIVIDE
 70
    0
  3
Divide ____ . . ____ . . ____ . . ____ . . ____
 72
   65
 73
    6
 40
31.75
 49
12.7
 74
    0
 49
-6.35
 74
    0
 49
0
 74
    0
 49
-6.35
 74
    0
 49
0
 74
    0
 49
-6.35
 74
    0
  0
LTYPE
  5
3F
330
5
100
AcDbSymbolTableRecord
100
AcDbLinetypeTableRecord
  2
DIVIDETINY
 70
    0
  3
Divide (.15x) __..__..__..__..__..__..__..__.._
 72
   65
 73
    6
 40
4.7625
 49
1.905
 74
    0
 49
-0.9525
 74
    0
 49
0
 74
    0
 49
-0.9525
 74
    0
 49
0
 74
    0
 49
-0.9525
 74
    0
  0
LTYPE
  5
40
330
5
100
AcDbSymbolTableRecord
100
AcDbLinetypeTableRecord
  2
DIVIDE2
 70
    0
  3
Divide (.5x) __..__..__..__..__..__..__..__.._
 72
   65
 73
    6
 40
15.875
 49
6.35
 74
    0
 49
-3.175
 74
    0
 49
0
 74
    0
 49
-3.175
 74
    0
 49
0
 74
    0
 49
-3.175
 74
    0
  0
LTYPE
  5
41
330
5
100
AcDbSymbolTableRecord
100
AcDbLinetypeTableRecord
  2
DIVIDEX2
 70
    0
  3
Divide (2x) ________  .  .  ________  .  .  _
 72
   65
 73
    6
 40
63.5
 49
25.4
 74
    0
 49
-12.7
 74
    0
 49
0
 74
    0
 49
-12.7
 74
    0
 49
0
 74
    0
 49
-12.7
 74
    0
  0
LTYPE
  5
42
330
5
100
AcDbSymbolTableRecord
100
AcDbLinetypeTableRecord
  2
BORDER
 70
    0
  3
Border __ __ . __ __ . __ __ . __ __ . __ __ .
 72
   65
 73
    6
 40
44.45
 49
12.7
 74
    0
 49
-6.35
 74
    0
 49
12.7
 74
    0
 49
-6.35
 74
    0
 49
0
 74
    0
 49
-6.35
 74
    0
  0
LTYPE
  5
43
330
5
100
AcDbSymbolTableRecord
100
AcDbLinetypeTableRecord
  2
BORDERTINY
 70
    0
  3
Border (.15x) __.__.__.__.__.__.__.__.__.__.__.
 72
   65
 73
    6
 40
6.6675
 49
1.905
 74
    0
 49
-0.9525
 74
    0
 49
1.905
 74
    0
 49
-0.9525
 74
    0
 49
0
 74
    0
 49
-0.9525
 74
    0
  0
LTYPE
  5
44
330
5
100
AcDbSymbolTableRecord
100
AcDbLinetypeTableRecord
  2
BORDER2
 70
    0
  3
Border (.5x) __.__.__.__.__.__.__.__.__.__.__.
 72
   65
 73
    6
 40
22.225
 49
6.35
 74
    0
 49
-3.175
 74
    0
 49
6.35
 74
    0
 49
-3.175
 74
    0
 49
0
 74
    0
 49
-3.175
 74
    0
  0
LTYPE
  5
45
330
5
100
AcDbSymbolTableRecord
100
AcDbLinetypeTableRecord
  2
BORDERX2
 70
    0
  3
Border (2x) ____  ____  .  ____  ____  .  ___
 72
   65
 73
    6
 40
88.89999999999999
 49
25.4
 74
    0
 49
-12.7
 74
    0
 49
25.4
 74
    0
 49
-12.7
 74
    0
 49
0
 74
    0
 49
-12.7
 74
    0
  0
LTYPE
  5
46
330
5
100
AcDbSymbolTableRecord
100
AcDbLinetypeTableRecord
  2
CENTER
 70
    0
  3
Center ____ _ ____ _ ____ _ ____ _ ____ _ ____
 72
   65
 73
    4
 40
50.8
 49
31.75
 74
    0
 49
-6.35
 74
    0
 49
6.35
 74
    0
 49
-6.35
 74
    0
  0
LTYPE
  5
47
330
5
100
AcDbSymbolTableRecord
100
AcDbLinetypeTableRecord
  2
CENTERTINY
 70
    0
  3
Center (.15x) ___ _ ___ _ ___ _ ___ _ ___ _ ___
 72
   65
 73
    4
 40
7.619999999999999
 49
4.7625
 74
    0
 49
-0.9525
 74
    0
 49
0.9525
 74
    0
 49
-0.9525
 74
    0
  0
LTYPE
  5
48
330
5
100
AcDbSymbolTableRecord
100
AcDbLinetypeTableRecord
  2
CENTER2
 70
    0
  3
Center (.5x) ___ _ ___ _ ___ _ ___ _ ___ _ ___
 72
   65
 73
    4
 40
28.575
 49
19.05
 74
    0
 49
-3.175
 74
    0
 49
3.175
 74
    0
 49
-3.175
 74
    0
  0
LTYPE
  5
49
330
5
100
AcDbSymbolTableRecord
100
AcDbLinetypeTableRecord
  2
CENTERX2
 70
    0
  3
Center (2x) ________  __  ________  __  _____
 72
   65
 73
    4
 40
101.6
 49
63.5
 74
    0
 49
-12.7
 74
    0
 49
12.7
 74
    0
 49
-12.7
 74
    0
  0
ENDTAB
  0
TABLE
  2
LAYER
  5
2
330
0
100
AcDbSymbolTable
 70
    1
  0
LAYER
  5
10
330
2
100
AcDbSymbolTableRecord
100
AcDbLayerTableRecord
  2
0
 70
    0
 62
    7
  6
CONTINUOUS
370
   -3
390
F
  0
LAYER
  5
4A
330
2
100
AcDbSymbolTableRecord
100
AcDbLayerTableRecord
  2
A
 70
    0
 62
    7
  6
CONTINUOUS
370
   -3
390
F
  0
LAYER
  5
4B
330
2
100
AcDbSymbolTableRecord
100
AcDbLayerTableRecord
  2
Ampersand
 70
    0
 62
    7
  6
CONTINUOUS
370
   -3
390
F
  0
LAYER
  5
4C
330
2
100
AcDbSymbolTableRecord
100
AcDbLayerTableRecord
  2
Background
 70
    0
 62
    8
420
8355711
  6
CONTINUOUS
370
   -3
390
F
  0
LAYER
  5
4D
330
2
100
AcDbSymbolTableRecord
100
AcDbLayerTableRecord
  2
Blue
 70
    0
 62
    5
  6
CONTINUOUS
370
   -3
390
F
  0
LAYER
  5
4E
330
2
100
AcDbSymbolTableRecord
100
AcDbLayerTableRecord
  2
D
 70
    0
 62
    7
  6
CONTINUOUS
370
   -3
390
F
  0
LAYER
  5
4F
330
2
100
AcDbSymbolTableRecord
100
AcDbLayerTableRecord
  2
Draw_Limits
 70
    1
 62
    7
  6
CONTINUOUS
370
   -3
390
F
  0
LAYER
  5
50
330
2
100
AcDbSymbolTableRecord
100
AcDbLayerTableRecord
  2
E
 70
    0
 62
    7
  6
CONTINUOUS
370
   -3
390
F
  0
LAYER
  5
51
330
2
100
AcDbSymbolTableRecord
100
AcDbLayerTableRecord
  2
G_Carolingian
 70
    0
 62
    5
  6
CONTINUOUS
370
   -3
390
F
  0
LAYER
  5
52
330
2
100
AcDbSymbolTableRecord
100
AcDbLayerTableRecord
  2
G_Insular_Gaelic
 70
    1
 62
    5
  6
CONTINUOUS
370
   -3
390
F
  0
LAYER
  5
53
330
2
100
AcDbSymbolTableRecord
100
AcDbLayerTableRecord
  2
Green
 70
    0
 62
    3
  6
CONTINUOUS
370
   -3
390
F
  0
LAYER
  5
54
330
2
100
AcDbSymbolTableRecord
100
AcDbLayerTableRecord
  2
I_Dotted
 70
    0
 62
    7
  6
CONTINUOUS
370
   -3
390
F
  0
LAYER
  5
55
330
2
100
AcDbSymbolTableRecord
100
AcDbLayerTableRecord
  2
Logo_Outline
 70
    0
 62
    7
  6
CONTINUOUS
370
   -3
390
F
  0
LAYER
  5
56
330
2
100
AcDbSymbolTableRecord
100
AcDbLayerTableRecord
  2
M
 70
    0
 62
    7
  6
CONTINUOUS
370
   -3
390
F
  0
LAYER
  5
57
330
2
100
AcDbSymbolTableRecord
100
AcDbLayerTableRecord
  2
N
 70
    0
 62
    7
  6
CONTINUOUS
370
   -3
390
F
  0
LAYER
  5
58
330
2
100
AcDbSymbolTableRecord
100
AcDbLayerTableRecord
  2
P
 70
    0
 62
    7
  6
CONTINUOUS
370
   -3
390
F
  0
LAYER
  5
59
330
2
100
AcDbSymbolTableRecord
100
AcDbLayerTableRecord
  2
R
 70
    0
 62
    7
  6
CONTINUOUS
370
   -3
390
F
  0
LAYER
  5
5A
330
2
100
AcDbSymbolTableRecord
100
AcDbLayerTableRecord
  2
Red
 70
    0
 62
    1
  6
CONTINUOUS
370
   -3
390
F
  0
LAYER
  5
5B
330
2
100
AcDbSymbolTableRecord
100
AcDbLayerTableRecord
  2
S
 70
    0
 62
    7
  6
CONTINUOUS
370
   -3
390
F
  0
LAYER
  5
5C
330
2
100
AcDbSymbolTableRecord
100
AcDbLayerTableRecord
  2
Text
 70
    0
 62
    7
  6
CONTINUOUS
370
   -3
390
F
  0
LAYER
  5
5D
330
2
100
AcDbSymbolTableRecord
100
AcDbLayerTableRecord
  2
Yellow
 70
    0
 62
    2
  6
CONTINUOUS
370
   -3
390
F
  0
ENDTAB
  0
TABLE
  2
STYLE
  5
3
330
0
100
AcDbSymbolTable
 70
    3
  0
STYLE
  5
5E
330
2
100
AcDbSymbolTableRecord
100
AcDbTextStyleTableRecord
  2
unicode
 70
    0
 40
0
 41
1
 50
0
 71
    0
 42
1
  3
unicode
  4

  0
STYLE
  5
5F
330
2
100
AcDbSymbolTableRecord
100
AcDbTextStyleTableRecord
  2
Standard
 70
    0
 40
0
 41
1
 50
0
 71
    0
 42
1
  3
txt
  4

  0
ENDTAB
  0
TABLE
  2
VIEW
  5
6
330
0
100
AcDbSymbolTable
 70
    0
  0
ENDTAB
  0
TABLE
  2
UCS
  5
7
330
0
100
AcDbSymbolTable
 70
    0
  0
ENDTAB
  0
TABLE
  2
APPID
  5
9
330
0
100
AcDbSymbolTable
 70
    1
  0
APPID
  5
12
330
9
100
AcDbSymbolTableRecord
100
AcDbRegAppTableRecord
  2
ACAD
 70
    0
  0
APPID
  5
60
330
9
100
AcDbSymbolTableRecord
100
AcDbRegAppTableRecord
  2
LibreCad
 70
    0
  0
ENDTAB
  0
TABLE
  2
DIMSTYLE
  5
A
330
0
100
AcDbSymbolTable
 70
    1
100
AcDbDimStyleTable
 71
    1
  0
DIMSTYLE
105
61
330
A
100
AcDbSymbolTableRecord
100
AcDbDimStyleTableRecord
  2
Standard
 70
    0
 40
2.5
 41
2.5
 42
0.625
 43
0.38
 44
1.25
 45
0
 46
0
 47
0
 48
0
 49
1
140
2.5
141
0.09
142
0
143
25.4
144
1
145
0
146
1
147
0.625
148
0
 71
    0
 72
    0
 73
    0
 74
    1
 75
    0
 76
    0
 77
    0
 78
    8
 79
    0
170
    0
171
    2
172
    0
173
    0
174
    0
175
    0
176
    0
177
    0
178
    0
179
    0
271
    2
272
    4
273
    2
274
    2
275
    0
276
    0
277
    2
278
   44
279
    0
280
    0
281
    0
282
    0
283
    1
284
    0
285
    0
286
    0
288
    0
289
    3
340
5F
  0
ENDTAB
  0
TABLE
  2
BLOCK_RECORD
  5
1
330
0
100
AcDbSymbolTable
 70
    2
  0
BLOCK_RECORD
  5
1F
330
1
100
AcDbSymbolTableRecord
100
AcDbBlockTableRecord
  2
*Model_Space
 70
    0
280
    1
281
    0
  0
BLOCK_RECORD
  5
1E
330
1
100
AcDbSymbolTableRecord
100
AcDbBlockTableRecord
  2
*Paper_Space
 70
    0
280
    1
281
    0
  0
ENDTAB
  0
ENDSEC
  0
SECTION
  2
BLOCKS
  0
BLOCK
  5
20
330
1F
100
AcDbEntity
  8
0
100
AcDbBlockBegin
  2
*Model_Space
 70
    0
 10
0
 20
0
 30
0
  3
*Model_Space
  1

  0
ENDBLK
  5
21
330
1F
100
AcDbEntity
  8
0
100
AcDbBlockEnd
  0
BLOCK
  5
1C
330
1B
100
AcDbEntity
  8
0
100
AcDbBlockBegin
  2
*Paper_Space
 70
    0
 10
0
 20
0
 30
0
  3
*Paper_Space
  1

  0
ENDBLK
  5
1D
330
1F
100
AcDbEntity
  8
0
100
AcDbBlockEnd
  0
ENDSEC
  0
SECTION
  2
ENTITIES
  0
HATCH
  5
62
100
AcDbEntity
  8
Background
  6
ByLayer
 62
  256
370
   -1
100
AcDbHatch
 10
0
 20
0
 30
0
210
0
220
0
230
1
  2
SOLID
 70
    1
 71
    0
 91
    1
 92
    0
 93
    1
 72
    2
 10
0
 20
0
 40
11.25
 50
0
 51
360
 73
    1
 97
    0
 75
    0
 76
    1
 98
    0
  0
HATCH
  5
63
100
AcDbEntity
  8
Green
  6
ByLayer
 62
  256
370
   -1
100
AcDbHatch
 10
0
 20
0
 30
0
210
0
220
0
230
1
  2
SOLID
 70
    1
 71
    0
 91
    1
 92
    0
 93
    4
 72
    2
 10
0
 20
3.202722283113838
 40
7.577722283113836
 50
306.6635598695713
 51
318.0620095835004
 73
    1
 72
    1
 10
5.636829446380164
 20
-1.861666010887863
 11
4.700854498974434
 21
-0.6496374002659834
 72
    2
 10
0
 20
3.202722283113838
 40
6.077722283113836
 50
39.33468731579639
 51
53.58652155047385
 73
    0
 72
    1
 10
3.607785882267607
 20
-1.688350112421624
 11
4.524772373289933
 21
-2.875789867890894
 97
    0
 75
    0
 76
    1
 98
    0
  0
HATCH
  5
64
100
AcDbEntity
  8
Yellow
  6
ByLayer
 62
  256
370
   -1
100
AcDbHatch
 10
0
 20
0
 30
0
210
0
220
0
230
1
  2
SOLID
 70
    1
 71
    0
 91
    1
 92
    0
 93
    4
 72
    1
 10
6.077722283113836
 20
3.202722283113838
 11
7.577722283113836
 21
3.202722283113838
 72
    2
 10
0
 20
3.202722283113838
 40
7.577722283113836
 50
360
 51
41.93799041649957
 73
    0
 72
    1
 10
5.636829446380164
 20
-1.861666010887863
 11
4.700854498974434
 21
-0.6496374002659834
 72
    2
 10
0
 20
3.202722283113838
 40
6.077722283113836
 50
320.6653126842036
 51
0
 73
    1
 97
    0
 75
    0
 76
    1
 98
    0
  0
HATCH
  5
65
100
AcDbEntity
  8
Red
  6
ByLayer
 62
  256
370
   -1
100
AcDbHatch
 10
0
 20
0
 30
0
210
0
220
0
230
1
  2
SOLID
 70
    1
 71
    0
 91
    1
 92
    0
 93
    4
 72
    1
 10
-0.8175526812522937
 20
4.042184626292273
 11
0.7251257208943197
 21
4.498680982039007
 72
    1
 10
0.725125720894321
 20
4.498680982039003
 11
4.700854498974434
 21
-0.6496374002659834
 72
    2
 10
0
 20
3.202722283113838
 40
6.077722283113836
 50
39.33468731579639
 51
53.58652155047385
 73
    0
 72
    1
 10
3.607785882267607
 20
-1.688350112421624
 11
-0.8175526812522937
 21
4.042184626292273
 97
    0
 75
    0
 76
    1
 98
    0
  0
HATCH
  5
66
100
AcDbEntity
  8
Red
  6
ByLayer
 62
  256
370
   -1
100
AcDbHatch
 10
0
 20
0
 30
0
210
0
220
0
230
1
  2
SOLID
 70
    1
 71
    0
 91
    1
 92
    0
 93
    4
 72
    1
 10
5.682519898598747
 20
-4.375000000000003
 11
7.577722283113836
 21
-4.375000000000004
 72
    1
 10
7.577722283113836
 20
-4.375000000000004
 11
5.636829446380164
 21
-1.861666010887863
 72
    2
 10
0
 20
3.202722283113838
 40
7.577722283113836
 50
41.93799041649957
 51
53.33644013042871
 73
    0
 72
    1
 10
4.524772373289933
 20
-2.875789867890894
 11
5.682519898598747
 21
-4.375000000000003
 97
    0
 75
    0
 76
    1
 98
    0
  0
HATCH
  5
67
100
AcDbEntity
  8
Yellow
  6
ByLayer
 62
  256
370
   -1
100
AcDbHatch
 10
0
 20
0
 30
0
210
0
220
0
230
1
  2
SOLID
 70
    1
 71
    0
 91
    1
 92
    0
 93
   10
 72
    1
 10
-1.798517788150231
 20
5.31731326070858
 11
-0.8175526812522937
 21
4.042184626292273
 72
    1
 10
-0.8175526812522937
 20
4.042184626292273
 11
-5.185707599636931
 21
2.758328875948429
 72
    2
 10
-4.375000000000001
 20
5.357652797972901e-16
 40
2.874999999999999
 50
106.3787257703919
 51
270.0000021064994
 73
    1
 72
    1
 10
-4.374999894299621
 20
-2.874999999999997
 11
-1.116422598700357e-15
 21
-2.874999999999998
 72
    2
 10
0
 20
3.202722283113838
 40
6.077722283113836
 50
270
 51
306.4134784495262
 73
    1
 72
    1
 10
3.607785882267607
 20
-1.688350112421624
 11
4.524772373289933
 21
-2.875789867890894
 72
    2
 10
0
 20
3.202722283113838
 40
7.577722283113836
 50
53.33644013042871
 51
90
 73
    0
 72
    1
 10
-1.391959028310392e-15
 20
-4.374999999999998
 11
-4.37500000000001
 21
-4.374999999999998
 72
    2
 10
-4.375000000000001
 20
5.357652797972901e-16
 40
4.374999999999999
 50
90.0000000000001
 51
253.6212742388696
 73
    0
 72
    1
 10
-5.60868547770837
 20
4.197456985138915
 11
-1.79851778815023
 21
5.31731326070858
 97
    0
 75
    0
 76
    1
 98
    0
  0
HATCH
  5
68
100
AcDbEntity
  8
Blue
  6
ByLayer
 62
  256
370
   -1
100
AcDbHatch
 10
0
 20
0
 30
0
210
0
220
0
230
1
  2
SOLID
 70
    1
 71
    0
 91
    1
 92
    0
 93
    6
 72
    1
 10
0.7251257208943197
 20
4.498680982039007
 11
-0.2569451283935766
 21
5.770400882549
 72
    1
 10
-0.2569451283935766
 20
5.770400882549
 11
-1.798517788150231
 21
5.31731326070858
 72
    2
 10
1.504115932643666e-16
 20
6.5625
 40
2.1875
 50
145.3035750377053
 51
70.64100285920118
 73
    0
 72
    1
 10
-0.5441371372397558
 20
6.14229644709198
 11
-0.2569451283935773
 21
5.770400882549
 72
    1
 10
-0.2569451283935766
 20
5.770400882549
 11
0.1938648607827439
 21
5.902899616621028
 72
    2
 10
1.504115932643666e-16
 20
6.5625
 40
0.6875
 50
286.3787265510963
 51
217.6767024395672
 73
    1
 97
    0
 75
    0
 76
    1
 98
    0
  0
HATCH
  5
69
100
AcDbEntity
  8
Green
  6
ByLayer
 62
  256
370
   -1
100
AcDbHatch
 10
0
 20
0
 30
0
210
0
220
0
230
1
  2
SOLID
 70
    1
 71
    0
 91
    1
 92
    0
 93
    4
 72
    1
 10
-1.798517788150231
 20
5.31731326070858
 11
-0.8175526812522937
 21
4.042184626292273
 72
    1
 10
-0.8175526812522937
 20
4.042184626292273
 11
0.7251257208943197
 21
4.498680982039007
 72
    1
 10
0.7251257208943197
 20
4.498680982039007
 11
-0.2569451283935766
 21
5.770400882549
 72
    1
 10
-0.2569451283935766
 20
5.770400882549
 11
-1.798517788150231
 21
5.31731326070858
 97
    0
 75
    0
 76
    1
 98
    0
  0
HATCH
  5
6A
100
AcDbEntity
  8
G_Carolingian
  6
ByLayer
 62
  256
370
   -1
100
AcDbHatch
 10
0
 20
0
 30
0
210
0
220
0
230
1
  2
SOLID
 70
    1
 71
    0
 91
    1
 92
    0
 93
   14
 72
    2
 10
-1.250042289852694
 20
-9.921562088380027
 40
0.9
 50
54.24890078881111
 51
90
 73
    1
 72
    2
 10
-1.250042289852694
 20
-9.604574790272105
 40
0.5830127018921836
 50
90
 51
180
 73
    1
 72
    1
 10
-1.833054991744874
 20
-9.604574790272116
 11
-1.833054991744714
 21
-9.738549386487845
 72
    2
 10
-1.250042289852694
 20
-9.738549386487845
 40
0.583012701892185
 50
180.0000000000003
 51
350.1236274390974
 73
    1
 72
    1
 10
-0.6756697534552139
 20
-9.838549386487847
 11
-1.150042289852692
 21
-9.838549386487847
 72
    1
 10
-1.150042289852692
 20
-9.838549386487847
 11
-1.150042289852692
 21
-10.03005573743391
 72
    1
 10
-1.150042289852692
 20
-10.03005573743391
 11
-1.250042289852694
 21
-10.03005573743391
 72
    1
 10
-1.250042289852694
 20
-10.03005573743391
 11
-1.250042289852694
 21
-9.738549386487845
 72
    1
 10
-1.250042289852694
 20
-9.738549386487845
 11
-0.5670295879606044
 21
-9.738549386487845
 72
    2
 10
-1.250042289852694
 20
-9.738549386487845
 40
0.683012701892185
 50
3.053332494204976e-13
 51
180
 73
    0
 72
    1
 10
-1.933054991744875
 20
-9.738549386487845
 11
-1.933054991744875
 21
-9.604574790272105
 72
    2
 10
-1.250042289852694
 20
-9.604574790272105
 40
0.683012701892185
 50
180
 51
270
 73
    0
 72
    2
 10
-1.250042289852694
 20
-9.921562088380027
 40
1
 50
270.0000000000002
 51
313.0795171418728
 73
    0
 72
    1
 10
-0.5670295879604232
 20
-9.191155592616267
 11
-0.7242035779399743
 21
-9.191155592616267
 97
    0
 75
    0
 76
    1
 98
    0
  0
HATCH
  5
6B
100
AcDbEntity
  8
Yellow
  6
ByLayer
 62
  256
370
   -1
100
AcDbHatch
 10
0
 20
0
 30
0
210
0
220
0
230
1
  2
SOLID
 70
    1
 71
    0
 91
    1
 92
    0
 93
   13
 72
    2
 10
1.25004228985269
 20
-9.046562088380027
 40
0.125
 50
0
 51
360
 73
    1
 72
    1
 10
1.12504228985269
 20
-10.42156208838003
 11
1.37504228985269
 21
-10.42156208838003
 72
    1
 10
1.37504228985269
 20
-10.42156208838003
 11
1.37504228985269
 21
-10.32156208838003
 72
    1
 10
1.37504228985269
 20
-10.32156208838003
 11
1.300042289852691
 21
-10.32156208838003
 72
    1
 10
1.300042289852691
 20
-10.32156208838003
 11
1.300042289852691
 21
-9.521562088380028
 72
    1
 10
1.300042289852691
 20
-9.521562088380028
 11
1.37504228985269
 21
-9.521562088380028
 72
    1
 10
1.37504228985269
 20
-9.521562088380028
 11
1.37504228985269
 21
-9.421562088380027
 72
    1
 10
1.37504228985269
 20
-9.421562088380027
 11
1.12504228985269
 21
-9.421562088380027
 72
    1
 10
1.12504228985269
 20
-9.421562088380027
 11
1.12504228985269
 21
-9.521562088380028
 72
    1
 10
1.12504228985269
 20
-9.521562088380028
 11
1.200042289852689
 21
-9.521562088380028
 72
    1
 10
1.200042289852689
 20
-9.521562088380028
 11
1.200042289852689
 21
-10.32156208838003
 72
    1
 10
1.200042289852689
 20
-10.32156208838003
 11
1.12504228985269
 21
-10.32156208838003
 72
    1
 10
1.12504228985269
 20
-10.32156208838003
 11
1.12504228985269
 21
-10.42156208838003
 97
    0
 75
    0
 76
    1
 98
    0
  0
HATCH
  5
6C
100
AcDbEntity
  8
Green
  6
ByLayer
 62
  256
370
   -1
100
AcDbHatch
 10
0
 20
0
 30
0
210
0
220
0
230
1
  2
SOLID
 70
    1
 71
    0
 91
    1
 92
    0
 93
   12
 72
    1
 10
5.364430439714795
 20
-7.233879263416684
 11
5.364430439714795
 21
-8.599904667201125
 72
    1
 10
5.364430439714795
 20
-8.599904667201125
 11
6.36443043971483
 21
-8.599904667201125
 72
    1
 10
6.36443043971483
 20
-8.599904667201125
 11
6.36443043971483
 21
-8.499904667201124
 72
    1
 10
6.36443043971483
 20
-8.499904667201124
 11
5.464430439714795
 21
-8.499904667201124
 72
    1
 10
5.464430439714795
 20
-8.499904667201124
 11
5.464430439714795
 21
-7.966891965308905
 72
    1
 10
5.464430439714795
 20
-7.966891965308905
 11
6.36443043971483
 21
-7.966891965308905
 72
    1
 10
6.36443043971483
 20
-7.966891965308905
 11
6.36443043971483
 21
-7.866891965308904
 72
    1
 10
6.36443043971483
 20
-7.866891965308904
 11
5.464430439714795
 21
-7.866891965308904
 72
    1
 10
5.464430439714795
 20
-7.866891965308904
 11
5.464430439714795
 21
-7.333879263416756
 72
    1
 10
5.464430439714795
 20
-7.333879263416756
 11
6.36443043971483
 21
-7.333879263416756
 72
    1
 10
6.36443043971483
 20
-7.333879263416756
 11
6.36443043971483
 21
-7.233879263416755
 72
    1
 10
6.36443043971483
 20
-7.233879263416755
 11
5.364430439714797
 21
-7.233879263416755
 97
    0
 75
    0
 76
    1
 98
    0
  0
HATCH
  5
6D
100
AcDbEntity
  8
Green
  6
ByLayer
 62
  256
370
   -1
100
AcDbHatch
 10
0
 20
0
 30
0
210
0
220
0
230
1
  2
SOLID
 70
    1
 71
    0
 91
    1
 92
    0
 93
   10
 72
    1
 10
-4.171993939942428
 20
-8.435397095222154
 11
-4.171993939942428
 21
-9.801422499006595
 72
    1
 10
-4.171993939942428
 20
-9.801422499006595
 11
-4.071993939942429
 21
-9.801422499006595
 72
    1
 10
-4.071993939942429
 20
-9.801422499006595
 11
-4.071993939942429
 21
-8.614334105004314
 72
    1
 10
-4.071993939942429
 20
-8.614334105004314
 11
-3.271993888940349
 21
-9.801422469137705
 72
    1
 10
-3.271993939942428
 20
-9.801422499006595
 11
-3.171993939942428
 21
-9.801422499006595
 72
    1
 10
-3.171993939942428
 20
-9.801422499006595
 11
-3.171993939942428
 21
-8.435397095222154
 72
    1
 10
-3.171993939942428
 20
-8.435397095222154
 11
-3.271993939942428
 21
-8.435397095222154
 72
    1
 10
-3.271993939942428
 20
-8.435397095222154
 11
-3.271993939942428
 21
-9.622485489224335
 72
    1
 10
-3.271993939942428
 20
-9.622485489224335
 11
-4.071993990944419
 21
-8.435397125091114
 72
    1
 10
-4.071993939942429
 20
-8.435397095222154
 11
-4.171993939942428
 21
-8.435397095222154
 97
    0
 75
    0
 76
    1
 98
    0
  0
HATCH
  5
6E
100
AcDbEntity
  8
Red
  6
ByLayer
 62
  256
370
   -1
100
AcDbHatch
 10
0
 20
0
 30
0
210
0
220
0
230
1
  2
SOLID
 70
    1
 71
    0
 91
    1
 92
    0
 93
   12
 72
    1
 10
-6.364430439714797
 20
-7.23387926341668
 11
-6.364430439714797
 21
-8.599904667201121
 72
    1
 10
-6.364430439714797
 20
-8.599904667201121
 11
-5.364430439714761
 21
-8.599904667201121
 72
    1
 10
-5.364430439714761
 20
-8.599904667201121
 11
-5.364430439714761
 21
-8.49990466720112
 72
    1
 10
-5.364430439714761
 20
-8.49990466720112
 11
-6.264430439714796
 21
-8.49990466720112
 72
    1
 10
-6.264430439714796
 20
-8.49990466720112
 11
-6.264430439714796
 21
-7.966891965308902
 72
    1
 10
-6.264430439714796
 20
-7.966891965308902
 11
-5.364430439714761
 21
-7.966891965308902
 72
    1
 10
-5.364430439714761
 20
-7.966891965308902
 11
-5.364430439714761
 21
-7.8668919653089
 72
    1
 10
-5.364430439714761
 20
-7.8668919653089
 11
-6.264430439714796
 21
-7.8668919653089
 72
    1
 10
-6.264430439714796
 20
-7.8668919653089
 11
-6.264430439714796
 21
-7.333879263416753
 72
    1
 10
-6.264430439714796
 20
-7.333879263416753
 11
-5.364430439714761
 21
-7.333879263416753
 72
    1
 10
-5.364430439714761
 20
-7.333879263416753
 11
-5.364430439714761
 21
-7.233879263416751
 72
    1
 10
-5.364430439714761
 20
-7.233879263416751
 11
-6.364430439714794
 21
-7.233879263416751
 97
    0
 75
    0
 76
    1
 98
    0
  0
HATCH
  5
6F
100
AcDbEntity
  8
Red
  6
ByLayer
 62
  256
370
   -1
100
AcDbHatch
 10
0
 20
0
 30
0
210
0
220
0
230
1
  2
SOLID
 70
    1
 71
    0
 91
    1
 92
    0
 93
   10
 72
    1
 10
3.171993939942427
 20
-8.435397095222154
 11
3.171993939942427
 21
-9.801422499006595
 72
    1
 10
3.171993939942427
 20
-9.801422499006595
 11
3.271993939942426
 21
-9.801422499006595
 72
    1
 10
3.271993939942426
 20
-9.801422499006595
 11
3.271993939942426
 21
-8.614334105004314
 72
    1
 10
3.271993939942426
 20
-8.614334105004314
 11
4.071993990944506
 21
-9.801422469137705
 72
    1
 10
4.071993939942427
 20
-9.801422499006595
 11
4.171993939942427
 21
-9.801422499006595
 72
    1
 10
4.171993939942427
 20
-9.801422499006595
 11
4.171993939942427
 21
-8.435397095222154
 72
    1
 10
4.171993939942427
 20
-8.435397095222154
 11
4.071993939942427
 21
-8.435397095222154
 72
    1
 10
4.071993939942427
 20
-8.435397095222154
 11
4.071993939942427
 21
-9.622485489224335
 72
    1
 10
4.071993939942427
 20
-9.622485489224335
 11
3.271993888940436
 21
-8.435397125091114
 72
    1
 10
3.271993939942426
 20
-8.435397095222154
 11
3.171993939942427
 21
-8.435397095222154
 97
    0
 75
    0
 76
    1
 98
    0
  0
HATCH
  5
70
100
AcDbEntity
  8
Yellow
  6
ByLayer
 62
  256
370
   -1
100
AcDbHatch
 10
0
 20
0
 30
0
210
0
220
0
230
1
  2
SOLID
 70
    1
 71
    0
 91
    1
 92
    0
 93
   12
 72
    1
 10
-2.980474438374843
 20
10.55350425850041
 11
-2.980474438374843
 21
9.18747885471597
 72
    1
 10
-2.980474438374843
 20
9.18747885471597
 11
-1.980474438374808
 21
9.18747885471597
 72
    1
 10
-1.980474438374808
 20
9.18747885471597
 11
-1.980474438374808
 21
9.287478854715971
 72
    1
 10
-1.980474438374808
 20
9.287478854715971
 11
-2.880474438374843
 21
9.287478854715971
 72
    1
 10
-2.880474438374843
 20
9.287478854715971
 11
-2.880474438374843
 21
9.820491556608189
 72
    1
 10
-2.880474438374843
 20
9.820491556608189
 11
-1.980474438374808
 21
9.820491556608189
 72
    1
 10
-1.980474438374808
 20
9.820491556608189
 11
-1.980474438374808
 21
9.920491556608191
 72
    1
 10
-1.980474438374808
 20
9.920491556608191
 11
-2.880474438374843
 21
9.920491556608191
 72
    1
 10
-2.880474438374843
 20
9.920491556608191
 11
-2.880474438374843
 21
10.45350425850034
 72
    1
 10
-2.880474438374843
 20
10.45350425850034
 11
-1.980474438374808
 21
10.45350425850034
 72
    1
 10
-1.980474438374808
 20
10.45350425850034
 11
-1.980474438374808
 21
10.55350425850034
 72
    1
 10
-1.980474438374808
 20
10.55350425850034
 11
-2.98047443837484
 21
10.55350425850034
 97
    0
 75
    0
 76
    1
 98
    0
  0
HATCH
  5
71
100
AcDbEntity
  8
Yellow
  6
ByLayer
 62
  256
370
   -1
100
AcDbHatch
 10
0
 20
0
 30
0
210
0
220
0
230
1
  2
SOLID
 70
    1
 71
    0
 91
    1
 92
    0
 93
   10
 72
    1
 10
6.330953409839285
 20
8.16931750478965
 11
6.330953409839285
 21
6.803292101005209
 72
    1
 10
6.330953409839285
 20
6.803292101005209
 11
6.430953409839285
 21
6.803292101005209
 72
    1
 10
6.430953409839285
 20
6.803292101005209
 11
6.430953409839285
 21
7.990380495007489
 72
    1
 10
6.430953409839285
 20
7.990380495007489
 11
7.230953460841365
 21
6.803292130874098
 72
    1
 10
7.230953409839286
 20
6.803292101005209
 11
7.330953409839285
 21
6.803292101005209
 72
    1
 10
7.330953409839285
 20
6.803292101005209
 11
7.330953409839285
 21
8.16931750478965
 72
    1
 10
7.330953409839285
 20
8.16931750478965
 11
7.230953409839286
 21
8.16931750478965
 72
    1
 10
7.230953409839286
 20
8.16931750478965
 11
7.230953409839286
 21
6.982229110787468
 72
    1
 10
7.230953409839286
 20
6.982229110787468
 11
6.430953358837295
 21
8.169317474920689
 72
    1
 10
6.430953409839285
 20
8.16931750478965
 11
6.330953409839285
 21
8.16931750478965
 97
    0
 75
    0
 76
    1
 98
    0
  0
HATCH
  5
72
100
AcDbEntity
  8
Blue
  6
ByLayer
 62
  256
370
   -1
100
AcDbHatch
 10
0
 20
0
 30
0
210
0
220
0
230
1
  2
SOLID
 70
    1
 71
    0
 91
    1
 92
    0
 93
   10
 72
    1
 10
4.805908734283954
 20
9.7694493121138
 11
3.939883330499515
 21
8.2694493121138
 72
    1
 10
3.939883330499515
 20
8.2694493121138
 11
4.055353384337441
 21
8.2694493121138
 72
    1
 10
4.055353384337441
 20
8.2694493121138
 11
4.315161005472771
 21
8.719449312113799
 72
    1
 10
4.315161005472771
 20
8.719449312113799
 11
5.296656463095135
 21
8.719449312113799
 72
    1
 10
5.296656463095135
 20
8.719449312113799
 11
5.556464084230465
 21
8.2694493121138
 72
    1
 10
5.556464084230465
 20
8.2694493121138
 11
5.671934138068393
 21
8.2694493121138
 72
    1
 10
5.671934138068393
 20
8.2694493121138
 11
4.805908734283954
 21
9.7694493121138
 72
    1
 10
4.372896032391735
 20
8.8194493121138
 11
5.238921436176171
 21
8.8194493121138
 72
    1
 10
5.238921436176171
 20
8.8194493121138
 11
4.805908734283956
 21
9.5694493121138
 72
    1
 10
4.805908734283956
 20
9.5694493121138
 11
4.372896032391735
 21
8.8194493121138
 97
    0
 75
    0
 76
    1
 98
    0
  0
HATCH
  5
73
100
AcDbEntity
  8
Blue
  6
ByLayer
 62
  256
370
   -1
100
AcDbHatch
 10
0
 20
0
 30
0
210
0
220
0
230
1
  2
SOLID
 70
    1
 71
    0
 91
    1
 92
    0
 93
   10
 72
    1
 10
-5.305908734283953
 20
9.635474715898241
 11
-5.305908734283953
 21
8.2694493121138
 72
    1
 10
-5.305908734283953
 20
8.2694493121138
 11
-5.205908734283952
 21
8.2694493121138
 72
    1
 10
-5.205908734283952
 20
8.2694493121138
 11
-5.205908734283952
 21
8.902462014006019
 72
    1
 10
-5.205908734283952
 20
8.902462014006019
 11
-4.416300059787105
 21
8.902462014006019
 72
    2
 10
-4.416300059787105
 20
9.268968364952119
 40
0.3665063509460964
 50
270.0000000000004
 51
89.99999999999959
 73
    1
 72
    1
 10
-4.416300059787105
 20
9.63547471589817
 11
-5.30590873428395
 21
9.63547471589817
 72
    1
 10
-5.205908734283952
 20
9.535474715898168
 11
-5.205908734283952
 21
9.002462014006021
 72
    1
 10
-5.205908734283952
 20
9.002462014006021
 11
-4.416300059787105
 21
9.002462014006021
 72
    2
 10
-4.416300059787105
 20
9.268968364952091
 40
0.2665063509460737
 50
270.0000000000007
 51
90
 73
    1
 72
    1
 10
-4.416300059787105
 20
9.535474715898168
 11
-5.205908734283952
 21
9.535474715898168
 97
    0
 75
    0
 76
    1
 98
    0
  0
HATCH
  5
74
100
AcDbEntity
  8
Green
  6
ByLayer
 62
  256
370
   -1
100
AcDbHatch
 10
0
 20
0
 30
0
210
0
220
0
230
1
  2
SOLID
 70
    1
 71
    0
 91
    1
 92
    0
 93
   10
 72
    1
 10
-7.330953409839285
 20
8.16931750478965
 11
-6.830953409839285
 21
7.803292101005209
 72
    1
 10
-6.830953409839285
 20
7.803292101005209
 11
-6.330953409839286
 21
8.16931750478965
 72
    1
 10
-6.330953409839285
 20
8.16931750478965
 11
-6.330953409839286
 21
6.803292101005209
 72
    1
 10
-6.330953409839286
 20
6.803292101005209
 11
-6.430953409839287
 21
6.803292101005209
 72
    1
 10
-6.430953409839287
 20
6.803292101005209
 11
-6.430953409839285
 21
7.972181056540009
 72
    1
 10
-6.430953409839285
 20
7.972181056540009
 11
-6.830953409839294
 21
7.67936073351245
 72
    1
 10
-6.830953409839294
 20
7.67936073351245
 11
-7.230953409839286
 21
7.972181056540009
 72
    1
 10
-7.230953409839286
 20
7.972181056540009
 11
-7.230953409839286
 21
6.803292101005209
 72
    1
 10
-7.230953409839286
 20
6.803292101005209
 11
-7.330953409839285
 21
6.803292101005209
 72
    1
 10
-7.330953409839285
 20
6.803292101005209
 11
-7.330953409839285
 21
8.16931750478965
 97
    0
 75
    0
 76
    1
 98
    0
  0
HATCH
  5
75
100
AcDbEntity
  8
Green
  6
ByLayer
 62
  256
370
   -1
100
AcDbHatch
 10
0
 20
0
 30
0
210
0
220
0
230
1
  2
SOLID
 70
    1
 71
    0
 91
    1
 92
    0
 93
    8
 72
    1
 10
2.248878829514465
 20
9.920491556608148
 11
2.980474438374886
 21
9.920491556608159
 72
    1
 10
2.980474450765454
 20
9.920491539704578
 11
2.133305254991585
 21
9.18747885471597
 72
    1
 10
2.133305254991585
 20
9.18747885471597
 11
1.980474438374804
 21
9.18747885471597
 72
    1
 10
1.980474438374804
 20
9.18747885471597
 11
2.712070047235224
 21
9.82049155660815
 72
    1
 10
2.712070047235224
 20
9.82049155660815
 11
1.980474438374804
 21
9.82049155660815
 72
    1
 10
1.980474425984255
 20
9.820491573511749
 11
2.827643621758105
 21
10.55350425850034
 72
    1
 10
2.827643621758105
 20
10.55350425850034
 11
2.980474438374886
 21
10.55350425850035
 72
    1
 10
2.980474438374886
 20
10.55350425850035
 11
2.248878829514465
 21
9.920491556608148
 97
    0
 75
    0
 76
    1
 98
    0
  0
HATCH
  5
76
100
AcDbEntity
  8
Red
  6
ByLayer
 62
  256
370
   -1
100
AcDbHatch
 10
0
 20
0
 30
0
210
0
220
0
230
1
  2
SOLID
 70
    1
 71
    0
 91
    1
 92
    0
 93
   10
 72
    1
 10
-8.429034608789625
 20
6.380648247546638
 11
-9.295060012574064
 21
4.880648247546638
 72
    1
 10
-9.295060012574064
 20
4.880648247546638
 11
-9.179589958736138
 21
4.880648247546638
 72
    1
 10
-9.179589958736138
 20
4.880648247546638
 11
-8.919782337600807
 21
5.330648247546637
 72
    1
 10
-8.919782337600807
 20
5.330648247546637
 11
-7.938286879978444
 21
5.330648247546637
 72
    1
 10
-7.938286879978444
 20
5.330648247546637
 11
-7.678479258843113
 21
4.880648247546638
 72
    1
 10
-7.678479258843113
 20
4.880648247546638
 11
-7.563009205005186
 21
4.880648247546638
 72
    1
 10
-7.563009205005186
 20
4.880648247546638
 11
-8.429034608789625
 21
6.380648247546638
 72
    1
 10
-8.862047310681843
 20
5.430648247546639
 11
-7.996021906897408
 21
5.430648247546639
 72
    1
 10
-7.996021906897408
 20
5.430648247546639
 11
-8.429034608789623
 21
6.180648247546639
 72
    1
 10
-8.429034608789623
 20
6.180648247546639
 11
-8.862047310681843
 21
5.430648247546639
 97
    0
 75
    0
 76
    1
 98
    0
  0
HATCH
  5
77
100
AcDbEntity
  8
Red
  6
ByLayer
 62
  256
370
   -1
100
AcDbHatch
 10
0
 20
0
 30
0
210
0
220
0
230
1
  2
SOLID
 70
    1
 71
    0
 91
    1
 92
    0
 93
   14
 72
    1
 10
-0.5
 20
10.86602540378444
 11
-0.5
 21
9.5
 72
    1
 10
-0.5
 20
9.5
 11
-0.3999999999999968
 21
9.5
 72
    1
 10
-0.3999999999999968
 20
9.5
 11
-0.3999999999999986
 21
10.13301270189222
 72
    1
 10
-0.3999999999999986
 20
10.13301270189222
 11
0.1834219464514106
 21
10.13301270189222
 72
    1
 10
0.1834219464514106
 20
10.13301270189222
 11
0.6334219464514295
 21
9.5
 72
    1
 10
0.6334219464514295
 20
9.5
 11
0.7561150270378096
 21
9.5
 72
    1
 10
0.7561150270378096
 20
9.5
 11
0.3061150270377908
 21
10.13301270189222
 72
    1
 10
0.3061150270377908
 20
10.13301270189222
 11
0.3896086760918092
 21
10.13301270064822
 72
    2
 10
0.3896086760918092
 20
10.49951905159427
 40
0.3665063509460503
 50
270.0000000000003
 51
90.00000000000028
 73
    1
 72
    1
 10
0.3896086760918092
 20
10.86602540378437
 11
-0.4999999999999964
 21
10.86602540378437
 72
    1
 10
-0.3999999999999986
 20
10.76602540378437
 11
-0.3999999999999986
 21
10.23301270189222
 72
    1
 10
-0.3999999999999986
 20
10.23301270189222
 11
0.3896086760918092
 21
10.23301270189222
 72
    2
 10
0.3896086760918092
 20
10.49951905283829
 40
0.2665063509460737
 50
269.9999999999989
 51
90.00000000000152
 73
    1
 72
    1
 10
0.3896086760918092
 20
10.76602540378437
 11
-0.3999999999999986
 21
10.76602540378437
 97
    0
 75
    0
 76
    1
 98
    0
  0
HATCH
  5
78
100
AcDbEntity
  8
Red
  6
ByLayer
 62
  256
370
   -1
100
AcDbHatch
 10
0
 20
0
 30
0
210
0
220
0
230
1
  2
SOLID
 70
    1
 71
    0
 91
    1
 92
    0
 93
    6
 72
    1
 10
7.929034608789625
 20
6.246673651331083
 11
7.929034608789625
 21
4.880648247546642
 72
    1
 10
7.929034608789625
 20
4.880648247546642
 11
9.416394605553506
 21
5.22215459849275
 72
    1
 10
9.416394605553506
 20
5.22215459849275
 11
7.929034608789625
 21
6.246673651331083
 72
    1
 10
8.029034608789626
 20
6.056364220714173
 11
8.029034608789626
 21
5.006210903657003
 72
    1
 10
8.029034608789626
 20
5.006210903657003
 11
9.172465785056545
 21
5.268749232921301
 72
    1
 10
9.172465785056545
 20
5.268749232921301
 11
8.029034608789626
 21
6.056364220714173
 97
    0
 75
    0
 76
    1
 98
    0
  0
HATCH
  5
79
100
AcDbEntity
  8
Logo_Outline
  6
ByLayer
 62
  256
370
   -1
100
AcDbHatch
 10
0
 20
0
 30
0
210
0
220
0
230
1
  2
SOLID
 70
    1
 71
    0
 91
    1
 92
    0
 93
    2
 72
    2
 10
0
 20
0
 40
12.5
 50
0
 51
360
 73
    1
 72
    2
 10
0
 20
0
 40
11.25
 50
0
 51
360
 73
    1
 97
    0
 75
    0
 76
    1
 98
    0
  0
HATCH
  5
7A
100
AcDbEntity
  8
G_Insular_Gaelic
  6
ByLayer
 62
  256
370
   -1
100
AcDbHatch
 10
0
 20
0
 30
0
210
0
220
0
230
1
  2
SOLID
 70
    1
 71
    0
 91
    1
 92
    0
 93
   22
 72
    2
 10
-0.8604336153558449
 20
-10.42108114121835
 40
0.3665063509460964
 50
270.0000000000004
 51
89.99999999999959
 73
    1
 72
    1
 10
-0.8604336153558449
 20
-10.05457479027225
 11
-0.8835375620796526
 21
-10.05457479027406
 72
    2
 10
-0.8835359389062951
 20
-9.788068439332926
 40
0.2665063509460737
 50
90.00034896347769
 51
180.0003489635342
 73
    0
 72
    1
 10
-1.150042289847423
 20
-9.788066816159306
 11
-1.150042289847423
 21
-9.422044658707536
 72
    2
 10
-0.8835359389062951
 20
-9.422043035533905
 40
0.2665063509460737
 50
179.9996510364658
 51
269.9996510365223
 73
    0
 72
    1
 10
-0.8835375620796526
 20
-9.155536684592777
 11
-0.8604336153558449
 21
-9.155536684595658
 72
    2
 10
-0.8604336153558449
 20
-9.422043035541735
 40
0.2665063509460737
 50
270
 51
5.648665114279206e-11
 73
    0
 72
    1
 10
-0.5939272644097642
 20
-9.422043035541988
 11
-0.4939272644098622
 21
-9.422043035541998
 72
    2
 10
-0.8604336153558449
 20
-9.422043035541707
 40
0.3665063509460964
 50
359.9999999999555
 51
89.99999999999959
 73
    1
 72
    1
 10
-0.8604336153558449
 20
-9.055536684595618
 11
-1.750042289853035
 21
-9.055536684595657
 72
    1
 10
-1.750042289853035
 20
-9.055536684595657
 11
-1.750042289853035
 21
-9.155536684595658
 72
    1
 10
-1.750042289853035
 20
-9.155536684595658
 11
-1.135133375684504
 21
-9.155536684595576
 72
    2
 10
-0.8835359389062951
 20
-9.422043035533887
 40
0.3665063509460964
 50
133.3517159758296
 51
180.0003489635221
 73
    1
 72
    1
 10
-1.250042289845595
 20
-9.422045267763698
 11
-1.250042289845595
 21
-9.788066207103137
 72
    2
 10
-0.8835359389062951
 20
-9.788068439332948
 40
0.3665063509460964
 50
179.9996510364779
 51
226.6482840244374
 73
    1
 72
    1
 10
-1.135133375683335
 20
-10.05457479027225
 11
-1.639650964349542
 21
-10.05457479027225
 72
    2
 10
-1.639650964349542
 20
-10.42108114121835
 40
0.3665063509460964
 50
90.00000000000041
 51
269.9999999999996
 73
    1
 72
    1
 10
-1.639650964349542
 20
-10.78758749216444
 11
-0.8604336153558449
 21
-10.78758749216444
 72
    2
 10
-0.8604336153558449
 20
-10.42108114121832
 40
0.2665063509460737
 50
270
 51
89.99999999999923
 73
    1
 72
    1
 10
-0.8604336153558449
 20
-10.15457479027225
 11
-1.639650964349542
 21
-10.15457479027225
 72
    2
 10
-1.639650964349542
 20
-10.42108114121832
 40
0.2665063509460737
 50
90.00000000000077
 51
270
 73
    1
 72
    1
 10
-1.639650964349542
 20
-10.6875874921644
 11
-0.8604336153558449
 21
-10.6875874921644
 97
    0
 75
    0
 76
    1
 98
    0
  0
CIRCLE
  5
7B
100
AcDbEntity
  8
Draw_Limits
  6
ByLayer
 62
  256
370
   -1
100
AcDbCircle
 10
6.123031769111886e-16
 20
10
 40
1.25
  0
CIRCLE
  5
7C
100
AcDbEntity
  8
Draw_Limits
  6
ByLayer
 62
  256
370
   -1
100
AcDbCircle
 10
2.480474438374844
 20
9.687478854715968
 40
1.25
  0
CIRCLE
  5
7D
100
AcDbEntity
  8
Draw_Limits
  6
ByLayer
 62
  256
370
   -1
100
AcDbCircle
 10
4.805908734283954
 20
8.769449312113801
 40
1.25
  0
CIRCLE
  5
7E
100
AcDbEntity
  8
Draw_Limits
  6
ByLayer
 62
  256
370
   -1
100
AcDbCircle
 10
6.830953409839285
 20
7.303292101005208
 40
1.25
  0
CIRCLE
  5
7F
100
AcDbEntity
  8
Draw_Limits
  6
ByLayer
 62
  256
370
   -1
100
AcDbCircle
 10
8.429034608789625
 20
5.380648247546641
 40
1.25
  0
CIRCLE
  5
80
100
AcDbEntity
  8
Draw_Limits
  6
ByLayer
 62
  256
370
   -1
100
AcDbCircle
 10
-4.805908734283953
 20
8.769449312113801
 40
1.25
  0
CIRCLE
  5
81
100
AcDbEntity
  8
Draw_Limits
  6
ByLayer
 62
  256
370
   -1
100
AcDbCircle
 10
-6.830953409839284
 20
7.303292101005208
 40
1.25
  0
CIRCLE
  5
82
100
AcDbEntity
  8
Draw_Limits
  6
ByLayer
 62
  256
370
   -1
100
AcDbCircle
 10
-8.429034608789625
 20
5.380648247546639
 40
1.25
  0
CIRCLE
  5
83
100
AcDbEntity
  8
Draw_Limits
  6
ByLayer
 62
  256
370
   -1
100
AcDbCircle
 10
-3.671993939942429
 20
-9.301422499006595
 40
1.25
  0
CIRCLE
  5
84
100
AcDbEntity
  8
Draw_Limits
  6
ByLayer
 62
  256
370
   -1
100
AcDbCircle
 10
-5.864430439714797
 20
-8.099904667201121
 40
1.25
  0
CIRCLE
  5
85
100
AcDbEntity
  8
Draw_Limits
  6
ByLayer
 62
  256
370
   -1
100
AcDbCircle
 10
1.250042289852691
 20
-9.921562088380027
 40
1.25
  0
CIRCLE
  5
86
100
AcDbEntity
  8
Draw_Limits
  6
ByLayer
 62
  256
370
   -1
100
AcDbCircle
 10
3.671993939942426
 20
-9.301422499006595
 40
1.25
  0
CIRCLE
  5
87
100
AcDbEntity
  8
Draw_Limits
  6
ByLayer
 62
  256
370
   -1
100
AcDbCircle
 10
5.864430439714795
 20
-8.099904667201125
 40
1.25
  0
CIRCLE
  5
88
100
AcDbEntity
  8
Draw_Limits
  6
ByLayer
 62
  256
370
   -1
100
AcDbCircle
 10
-2.480474438374843
 20
9.68747885471597
 40
1.25
  0
CIRCLE
  5
89
100
AcDbEntity
  8
Logo_Outline
  6
ByLayer
 62
  256
370
   -1
100
AcDbCircle
 10
0
 20
0
 40
12.5
  0
CIRCLE
  5
8A
100
AcDbEntity
  8
Draw_Limits
  6
ByLayer
 62
  256
370
   -1
100
AcDbCircle
 10
1.25004228985269
 20
-9.921562088380027
 40
1.25
  0
CIRCLE
  5
8B
100
AcDbEntity
  8
Draw_Limits
  6
ByLayer
 62
  256
370
   -1
100
AcDbCircle
 10
-1.250042289852694
 20
-9.921562088380027
 40
1.25
  0
ARC
  5
8C
100
AcDbEntity
  8
G_Insular_Gaelic
  6
ByLayer
 62
  256
370
   -1
100
AcDbCircle
 10
-0.8604336153558449
 20
-10.42108114121835
 40
0.3665063509460964
100
AcDbArc
 50
270.0000000000004
 51
89.99999999999959
  0
ARC
  5
8D
100
AcDbEntity
  8
G_Insular_Gaelic
  6
ByLayer
 62
  256
370
   -1
100
AcDbCircle
 10
-0.8604336153558449
 20
-10.42108114121832
 40
0.2665063509460737
100
AcDbArc
 50
270
 51
89.99999999999923
  0
ARC
  5
8E
100
AcDbEntity
  8
G_Insular_Gaelic
  6
ByLayer
 62
  256
370
   -1
100
AcDbCircle
 10
-1.639650964349542
 20
-10.42108114121835
 40
0.3665063509460964
100
AcDbArc
 50
90.00000000000041
 51
269.9999999999996
  0
ARC
  5
8F
100
AcDbEntity
  8
G_Insular_Gaelic
  6
ByLayer
 62
  256
370
   -1
100
AcDbCircle
 10
-1.639650964349542
 20
-10.42108114121832
 40
0.2665063509460737
100
AcDbArc
 50
90.00000000000077
 51
270
  0
LINE
  5
90
100
AcDbEntity
  8
G_Insular_Gaelic
  6
ByLayer
 62
  256
370
   -1
100
AcDbLine
 10
-0.5939272644097642
 20
-9.422043035541988
 11
-0.4939272644098622
 21
-9.422043035541998
  0
ARC
  5
91
100
AcDbEntity
  8
G_Insular_Gaelic
  6
ByLayer
 62
  256
370
   -1
100
AcDbCircle
 10
-0.8604336153558449
 20
-9.422043035541707
 40
0.3665063509460964
100
AcDbArc
 50
359.9999999999555
 51
89.99999999999959
  0
ARC
  5
92
100
AcDbEntity
  8
G_Insular_Gaelic
  6
ByLayer
 62
  256
370
   -1
100
AcDbCircle
 10
-0.8604336153558449
 20
-9.422043035541735
 40
0.2665063509460737
100
AcDbArc
 50
359.9999999999435
 51
90
  0
LINE
  5
93
100
AcDbEntity
  8
G_Insular_Gaelic
  6
ByLayer
 62
  256
370
   -1
100
AcDbLine
 10
-1.750042289853035
 20
-9.055536684595657
 11
-1.750042289853035
 21
-9.155536684595658
  0
ARC
  5
94
100
AcDbEntity
  8
G_Insular_Gaelic
  6
ByLayer
 62
  256
370
   -1
100
AcDbCircle
 10
-0.8835359389062951
 20
-9.422043035533905
 40
0.2665063509460737
100
AcDbArc
 50
90.00034896347769
 51
180.0003489635342
  0
ARC
  5
95
100
AcDbEntity
  8
G_Insular_Gaelic
  6
ByLayer
 62
  256
370
   -1
100
AcDbCircle
 10
-0.8835359389062951
 20
-9.788068439332926
 40
0.2665063509460737
100
AcDbArc
 50
179.9996510364658
 51
269.9996510365223
  0
LINE
  5
96
100
AcDbEntity
  8
G_Insular_Gaelic
  6
ByLayer
 62
  256
370
   -1
100
AcDbLine
 10
-0.8604336153558449
 20
-10.05457479027225
 11
-0.8835375620796526
 21
-10.05457479027406
  0
ARC
  5
97
100
AcDbEntity
  8
G_Insular_Gaelic
  6
ByLayer
 62
  256
370
   -1
100
AcDbCircle
 10
-0.8835359389062951
 20
-9.788068439332948
 40
0.3665063509460964
100
AcDbArc
 50
179.9996510364779
 51
226.6482840244374
  0
LINE
  5
98
100
AcDbEntity
  8
G_Insular_Gaelic
  6
ByLayer
 62
  256
370
   -1
100
AcDbLine
 10
-1.639650964349542
 20
-10.05457479027225
 11
-1.135133375683335
 21
-10.05457479027225
  0
LINE
  5
99
100
AcDbEntity
  8
G_Insular_Gaelic
  6
ByLayer
 62
  256
370
   -1
100
AcDbLine
 10
-1.639650964349542
 20
-10.15457479027225
 11
-0.8604336153558449
 21
-10.15457479027225
  0
LINE
  5
9A
100
AcDbEntity
  8
G_Insular_Gaelic
  6
ByLayer
 62
  256
370
   -1
100
AcDbLine
 10
-1.250042289845595
 20
-9.422045267763698
 11
-1.250042289845595
 21
-9.788066207103137
  0
LINE
  5
9B
100
AcDbEntity
  8
G_Insular_Gaelic
  6
ByLayer
 62
  256
370
   -1
100
AcDbLine
 10
-1.150042289847423
 20
-9.422044658707536
 11
-1.150042289847423
 21
-9.788066816159306
  0
LINE
  5
9C
100
AcDbEntity
  8
G_Insular_Gaelic
  6
ByLayer
 62
  256
370
   -1
100
AcDbLine
 10
-1.750042289853035
 20
-9.055536684595657
 11
-0.8604336153558449
 21
-9.055536684595618
  0
ARC
  5
9D
100
AcDbEntity
  8
G_Insular_Gaelic
  6
ByLayer
 62
  256
370
   -1
100
AcDbCircle
 10
-0.8835359389062951
 20
-9.422043035533887
 40
0.3665063509460964
100
AcDbArc
 50
133.3517159758296
 51
180.0003489635221
  0
LINE
  5
9E
100
AcDbEntity
  8
G_Insular_Gaelic
  6
ByLayer
 62
  256
370
   -1
100
AcDbLine
 10
-1.750042289853035
 20
-9.155536684595658
 11
-1.135133375684504
 21
-9.155536684595576
  0
LINE
  5
9F
100
AcDbEntity
  8
G_Insular_Gaelic
  6
ByLayer
 62
  256
370
   -1
100
AcDbLine
 10
-0.8835375620796526
 20
-9.155536684592777
 11
-0.8604336153558449
 21
-9.155536684595658
  0
LINE
  5
A0
100
AcDbEntity
  8
G_Insular_Gaelic
  6
ByLayer
 62
  256
370
   -1
100
AcDbLine
 10
-0.8604336153558449
 20
-10.78758749216444
 11
-1.639650964349542
 21
-10.78758749216444
  0
LINE
  5
A1
100
AcDbEntity
  8
G_Insular_Gaelic
  6
ByLayer
 62
  256
370
   -1
100
AcDbLine
 10
-0.8604336153558449
 20
-10.6875874921644
 11
-1.639650964349542
 21
-10.6875874921644
  0
CIRCLE
  5
A2
100
AcDbEntity
  8
Draw_Limits
  6
ByLayer
 62
  256
370
   -1
100
AcDbCircle
 10
0
 20
0
 40
10
  0
CIRCLE
  5
A3
100
AcDbEntity
  8
Draw_Limits
  6
ByLayer
 62
  256
370
   -1
100
AcDbCircle
 10
0
 20
0
 40
8.75
  0
LINE
  5
A4
100
AcDbEntity
  8
Draw_Limits
  6
ByLayer
 62
  256
370
   -1
100
AcDbLine
 10
-12.5
 20
-12.5
 11
12.5
 21
-12.5
  0
LINE
  5
A5
100
AcDbEntity
  8
Draw_Limits
  6
ByLayer
 62
  256
370
   -1
100
AcDbLine
 10
12.5
 20
-12.5
 11
12.5
 21
-37.5
  0
LINE
  5
A6
100
AcDbEntity
  8
Draw_Limits
  6
ByLayer
 62
  256
370
   -1
100
AcDbLine
 10
-12.5
 20
-12.5
 11
-12.5
 21
-37.5
  0
LINE
  5
A7
100
AcDbEntity
  8
Draw_Limits
  6
ByLayer
 62
  256
370
   -1
100
AcDbLine
 10
-12.5
 20
-37.5
 11
12.5
 21
-37.5
  0
LINE
  5
A8
100
AcDbEntity
  8
Red
  6
ByLayer
 62
  256
370
   -1
100
AcDbLine
 10
-8.429034608789625
 20
6.380648247546638
 11
-9.295060012574064
 21
4.880648247546638
  0
LINE
  5
A9
100
AcDbEntity
  8
Red
  6
ByLayer
 62
  256
370
   -1
100
AcDbLine
 10
-8.429034608789625
 20
6.380648247546638
 11
-7.563009205005186
 21
4.880648247546638
  0
LINE
  5
AA
100
AcDbEntity
  8
Red
  6
ByLayer
 62
  256
370
   -1
100
AcDbLine
 10
-8.862047310681843
 20
5.430648247546639
 11
-7.996021906897408
 21
5.430648247546639
  0
LINE
  5
AB
100
AcDbEntity
  8
Red
  6
ByLayer
 62
  256
370
   -1
100
AcDbLine
 10
-8.919782337600807
 20
5.330648247546637
 11
-7.938286879978444
 21
5.330648247546637
  0
LINE
  5
AC
100
AcDbEntity
  8
Red
  6
ByLayer
 62
  256
370
   -1
100
AcDbLine
 10
-9.179589958736138
 20
4.880648247546638
 11
-9.295060012574064
 21
4.880648247546638
  0
LINE
  5
AD
100
AcDbEntity
  8
Red
  6
ByLayer
 62
  256
370
   -1
100
AcDbLine
 10
-7.678479258843113
 20
4.880648247546638
 11
-7.563009205005186
 21
4.880648247546638
  0
LINE
  5
AE
100
AcDbEntity
  8
Red
  6
ByLayer
 62
  256
370
   -1
100
AcDbLine
 10
-8.919782337600807
 20
5.330648247546637
 11
-9.179589958736138
 21
4.880648247546638
  0
LINE
  5
AF
100
AcDbEntity
  8
Red
  6
ByLayer
 62
  256
370
   -1
100
AcDbLine
 10
-8.429034608789623
 20
6.180648247546639
 11
-8.862047310681843
 21
5.430648247546639
  0
LINE
  5
B0
100
AcDbEntity
  8
Red
  6
ByLayer
 62
  256
370
   -1
100
AcDbLine
 10
-7.938286879978444
 20
5.330648247546637
 11
-7.678479258843113
 21
4.880648247546638
  0
LINE
  5
B1
100
AcDbEntity
  8
Red
  6
ByLayer
 62
  256
370
   -1
100
AcDbLine
 10
-8.429034608789623
 20
6.180648247546639
 11
-7.996021906897408
 21
5.430648247546639
  0
LINE
  5
B2
100
AcDbEntity
  8
Red
  6
ByLayer
 62
  256
370
   -1
100
AcDbLine
 10
-0.5
 20
10.86602540378444
 11
-0.5
 21
9.5
  0
LINE
  5
B3
100
AcDbEntity
  8
Red
  6
ByLayer
 62
  256
370
   -1
100
AcDbLine
 10
-0.3999999999999986
 20
10.76602540378437
 11
-0.3999999999999986
 21
10.23301270189222
  0
LINE
  5
B4
100
AcDbEntity
  8
Red
  6
ByLayer
 62
  256
370
   -1
100
AcDbLine
 10
-0.3999999999999986
 20
10.13301270189222
 11
-0.3999999999999968
 21
9.5
  0
LINE
  5
B5
100
AcDbEntity
  8
Red
  6
ByLayer
 62
  256
370
   -1
100
AcDbLine
 10
-0.5
 20
9.5
 11
-0.3999999999999968
 21
9.5
  0
ARC
  5
B6
100
AcDbEntity
  8
Red
  6
ByLayer
 62
  256
370
   -1
100
AcDbCircle
 10
0.3896086760918092
 20
10.49951905159427
 40
0.3665063509460503
100
AcDbArc
 50
270.0000000000003
 51
90.00000000000028
  0
LINE
  5
B7
100
AcDbEntity
  8
Red
  6
ByLayer
 62
  256
370
   -1
100
AcDbLine
 10
-0.3999999999999986
 20
10.23301270189222
 11
0.3896086760918092
 21
10.23301270189222
  0
LINE
  5
B8
100
AcDbEntity
  8
Red
  6
ByLayer
 62
  256
370
   -1
100
AcDbLine
 10
-0.3999999999999986
 20
10.76602540378437
 11
0.3896086760918092
 21
10.76602540378437
  0
LINE
  5
B9
100
AcDbEntity
  8
Red
  6
ByLayer
 62
  256
370
   -1
100
AcDbLine
 10
-0.4999999999999964
 20
10.86602540378437
 11
0.3896086760918092
 21
10.86602540378437
  0
ARC
  5
BA
100
AcDbEntity
  8
Red
  6
ByLayer
 62
  256
370
   -1
100
AcDbCircle
 10
0.3896086760918092
 20
10.49951905283829
 40
0.2665063509460737
100
AcDbArc
 50
269.9999999999989
 51
90.00000000000152
  0
LINE
  5
BB
100
AcDbEntity
  8
Red
  6
ByLayer
 62
  256
370
   -1
100
AcDbLine
 10
0.3061150270377908
 20
10.13301270189222
 11
0.7561150270378096
 21
9.5
  0
LINE
  5
BC
100
AcDbEntity
  8
Red
  6
ByLayer
 62
  256
370
   -1
100
AcDbLine
 10
0.1834219464514106
 20
10.13301270189222
 11
0.6334219464514295
 21
9.5
  0
LINE
  5
BD
100
AcDbEntity
  8
Red
  6
ByLayer
 62
  256
370
   -1
100
AcDbLine
 10
0.6334219464514295
 20
9.5
 11
0.7561150270378096
 21
9.5
  0
LINE
  5
BE
100
AcDbEntity
  8
Red
  6
ByLayer
 62
  256
370
   -1
100
AcDbLine
 10
-0.3999999999999986
 20
10.13301270189222
 11
0.1834219464514106
 21
10.13301270189222
  0
LINE
  5
BF
100
AcDbEntity
  8
Red
  6
ByLayer
 62
  256
370
   -1
100
AcDbLine
 10
0.3061150270377908
 20
10.13301270189222
 11
0.3896086760918092
 21
10.13301270064822
  0
LINE
  5
C0
100
AcDbEntity
  8
Red
  6
ByLayer
 62
  256
370
   -1
100
AcDbLine
 10
7.929034608789625
 20
6.246673651331083
 11
7.929034608789625
 21
4.880648247546642
  0
LINE
  5
C1
100
AcDbEntity
  8
Red
  6
ByLayer
 62
  256
370
   -1
100
AcDbLine
 10
7.929034608789625
 20
4.880648247546642
 11
9.416394605553506
 21
5.22215459849275
  0
LINE
  5
C2
100
AcDbEntity
  8
Red
  6
ByLayer
 62
  256
370
   -1
100
AcDbLine
 10
9.416394605553506
 20
5.22215459849275
 11
7.929034608789625
 21
6.246673651331083
  0
LINE
  5
C3
100
AcDbEntity
  8
Red
  6
ByLayer
 62
  256
370
   -1
100
AcDbLine
 10
8.029034608789626
 20
6.056364220714173
 11
8.029034608789626
 21
5.006210903657003
  0
LINE
  5
C4
100
AcDbEntity
  8
Red
  6
ByLayer
 62
  256
370
   -1
100
AcDbLine
 10
9.172465785056545
 20
5.268749232921301
 11
8.029034608789626
 21
6.056364220714173
  0
LINE
  5
C5
100
AcDbEntity
  8
Red
  6
ByLayer
 62
  256
370
   -1
100
AcDbLine
 10
8.029034608789626
 20
5.006210903657003
 11
9.172465785056545
 21
5.268749232921301
  0
LINE
  5
C6
100
AcDbEntity
  8
Green
  6
ByLayer
 62
  256
370
   -1
100
AcDbLine
 10
-7.330953409839285
 20
8.16931750478965
 11
-6.830953409839285
 21
7.803292101005209
  0
LINE
  5
C7
100
AcDbEntity
  8
Green
  6
ByLayer
 62
  256
370
   -1
100
AcDbLine
 10
-6.830953409839285
 20
7.803292101005209
 11
-6.330953409839286
 21
8.16931750478965
  0
LINE
  5
C8
100
AcDbEntity
  8
Green
  6
ByLayer
 62
  256
370
   -1
100
AcDbLine
 10
-7.330953409839285
 20
8.16931750478965
 11
-7.330953409839285
 21
6.803292101005209
  0
LINE
  5
C9
100
AcDbEntity
  8
Green
  6
ByLayer
 62
  256
370
   -1
100
AcDbLine
 10
-6.330953409839285
 20
8.16931750478965
 11
-6.330953409839286
 21
6.803292101005209
  0
LINE
  5
CA
100
AcDbEntity
  8
Green
  6
ByLayer
 62
  256
370
   -1
100
AcDbLine
 10
-7.330953409839285
 20
6.803292101005209
 11
-7.230953409839286
 21
6.803292101005209
  0
LINE
  5
CB
100
AcDbEntity
  8
Green
  6
ByLayer
 62
  256
370
   -1
100
AcDbLine
 10
-6.430953409839287
 20
6.803292101005209
 11
-6.330953409839286
 21
6.803292101005209
  0
LINE
  5
CC
100
AcDbEntity
  8
Green
  6
ByLayer
 62
  256
370
   -1
100
AcDbLine
 10
-7.230953409839286
 20
7.972181056540009
 11
-7.230953409839286
 21
6.803292101005209
  0
LINE
  5
CD
100
AcDbEntity
  8
Green
  6
ByLayer
 62
  256
370
   -1
100
AcDbLine
 10
-7.230953409839286
 20
7.972181056540009
 11
-6.830953409839294
 21
7.67936073351245
  0
LINE
  5
CE
100
AcDbEntity
  8
Green
  6
ByLayer
 62
  256
370
   -1
100
AcDbLine
 10
-6.430953409839285
 20
7.972181056540009
 11
-6.430953409839287
 21
6.803292101005209
  0
LINE
  5
CF
100
AcDbEntity
  8
Green
  6
ByLayer
 62
  256
370
   -1
100
AcDbLine
 10
-6.830953409839294
 20
7.67936073351245
 11
-6.430953409839285
 21
7.972181056540009
  0
LINE
  5
D0
100
AcDbEntity
  8
Green
  6
ByLayer
 62
  256
370
   -1
100
AcDbLine
 10
2.248878829514465
 20
9.920491556608148
 11
2.980474438374886
 21
9.920491556608159
  0
LINE
  5
D1
100
AcDbEntity
  8
Green
  6
ByLayer
 62
  256
370
   -1
100
AcDbLine
 10
1.980474425984255
 20
9.820491573511749
 11
2.827643621758105
 21
10.55350425850034
  0
LINE
  5
D2
100
AcDbEntity
  8
Green
  6
ByLayer
 62
  256
370
   -1
100
AcDbLine
 10
2.980474450765454
 20
9.920491539704578
 11
2.133305254991585
 21
9.18747885471597
  0
LINE
  5
D3
100
AcDbEntity
  8
Green
  6
ByLayer
 62
  256
370
   -1
100
AcDbLine
 10
2.712070047235224
 20
9.82049155660815
 11
1.980474438374804
 21
9.18747885471597
  0
LINE
  5
D4
100
AcDbEntity
  8
Green
  6
ByLayer
 62
  256
370
   -1
100
AcDbLine
 10
1.980474438374804
 20
9.82049155660815
 11
2.712070047235224
 21
9.82049155660815
  0
LINE
  5
D5
100
AcDbEntity
  8
Green
  6
ByLayer
 62
  256
370
   -1
100
AcDbLine
 10
1.980474438374804
 20
9.18747885471597
 11
2.133305254991585
 21
9.18747885471597
  0
LINE
  5
D6
100
AcDbEntity
  8
Green
  6
ByLayer
 62
  256
370
   -1
100
AcDbLine
 10
2.248878829514465
 20
9.920491556608148
 11
2.980474438374886
 21
10.55350425850035
  0
LINE
  5
D7
100
AcDbEntity
  8
Green
  6
ByLayer
 62
  256
370
   -1
100
AcDbLine
 10
2.827643621758105
 20
10.55350425850034
 11
2.980474438374886
 21
10.55350425850035
  0
LINE
  5
D8
100
AcDbEntity
  8
Blue
  6
ByLayer
 62
  256
370
   -1
100
AcDbLine
 10
4.805908734283954
 20
9.7694493121138
 11
3.939883330499515
 21
8.2694493121138
  0
LINE
  5
D9
100
AcDbEntity
  8
Blue
  6
ByLayer
 62
  256
370
   -1
100
AcDbLine
 10
4.805908734283954
 20
9.7694493121138
 11
5.671934138068393
 21
8.2694493121138
  0
LINE
  5
DA
100
AcDbEntity
  8
Blue
  6
ByLayer
 62
  256
370
   -1
100
AcDbLine
 10
4.372896032391735
 20
8.8194493121138
 11
5.238921436176171
 21
8.8194493121138
  0
LINE
  5
DB
100
AcDbEntity
  8
Blue
  6
ByLayer
 62
  256
370
   -1
100
AcDbLine
 10
4.315161005472771
 20
8.719449312113799
 11
5.296656463095135
 21
8.719449312113799
  0
LINE
  5
DC
100
AcDbEntity
  8
Blue
  6
ByLayer
 62
  256
370
   -1
100
AcDbLine
 10
4.055353384337441
 20
8.2694493121138
 11
3.939883330499515
 21
8.2694493121138
  0
LINE
  5
DD
100
AcDbEntity
  8
Blue
  6
ByLayer
 62
  256
370
   -1
100
AcDbLine
 10
5.556464084230465
 20
8.2694493121138
 11
5.671934138068393
 21
8.2694493121138
  0
LINE
  5
DE
100
AcDbEntity
  8
Blue
  6
ByLayer
 62
  256
370
   -1
100
AcDbLine
 10
4.315161005472771
 20
8.719449312113799
 11
4.055353384337441
 21
8.2694493121138
  0
LINE
  5
DF
100
AcDbEntity
  8
Blue
  6
ByLayer
 62
  256
370
   -1
100
AcDbLine
 10
4.805908734283956
 20
9.5694493121138
 11
4.372896032391735
 21
8.8194493121138
  0
LINE
  5
E0
100
AcDbEntity
  8
Blue
  6
ByLayer
 62
  256
370
   -1
100
AcDbLine
 10
5.296656463095135
 20
8.719449312113799
 11
5.556464084230465
 21
8.2694493121138
  0
LINE
  5
E1
100
AcDbEntity
  8
Blue
  6
ByLayer
 62
  256
370
   -1
100
AcDbLine
 10
4.805908734283956
 20
9.5694493121138
 11
5.238921436176171
 21
8.8194493121138
  0
LINE
  5
E2
100
AcDbEntity
  8
Blue
  6
ByLayer
 62
  256
370
   -1
100
AcDbLine
 10
-5.305908734283953
 20
9.635474715898241
 11
-5.305908734283953
 21
8.2694493121138
  0
LINE
  5
E3
100
AcDbEntity
  8
Blue
  6
ByLayer
 62
  256
370
   -1
100
AcDbLine
 10
-5.205908734283952
 20
9.535474715898168
 11
-5.205908734283952
 21
9.002462014006021
  0
LINE
  5
E4
100
AcDbEntity
  8
Blue
  6
ByLayer
 62
  256
370
   -1
100
AcDbLine
 10
-5.205908734283952
 20
9.535474715898168
 11
-4.416300059787105
 21
9.535474715898168
  0
LINE
  5
E5
100
AcDbEntity
  8
Blue
  6
ByLayer
 62
  256
370
   -1
100
AcDbLine
 10
-5.30590873428395
 20
9.63547471589817
 11
-4.416300059787105
 21
9.63547471589817
  0
LINE
  5
E6
100
AcDbEntity
  8
Blue
  6
ByLayer
 62
  256
370
   -1
100
AcDbLine
 10
-5.205908734283952
 20
8.902462014006019
 11
-5.205908734283952
 21
8.2694493121138
  0
LINE
  5
E7
100
AcDbEntity
  8
Blue
  6
ByLayer
 62
  256
370
   -1
100
AcDbLine
 10
-5.305908734283953
 20
8.2694493121138
 11
-5.205908734283952
 21
8.2694493121138
  0
ARC
  5
E8
100
AcDbEntity
  8
Blue
  6
ByLayer
 62
  256
370
   -1
100
AcDbCircle
 10
-4.416300059787105
 20
9.268968364952119
 40
0.3665063509460964
100
AcDbArc
 50
270.0000000000004
 51
89.99999999999959
  0
LINE
  5
E9
100
AcDbEntity
  8
Blue
  6
ByLayer
 62
  256
370
   -1
100
AcDbLine
 10
-5.205908734283952
 20
8.902462014006019
 11
-4.416300059787105
 21
8.902462014006019
  0
LINE
  5
EA
100
AcDbEntity
  8
Blue
  6
ByLayer
 62
  256
370
   -1
100
AcDbLine
 10
-5.205908734283952
 20
9.002462014006021
 11
-4.416300059787105
 21
9.002462014006021
  0
ARC
  5
EB
100
AcDbEntity
  8
Blue
  6
ByLayer
 62
  256
370
   -1
100
AcDbCircle
 10
-4.416300059787105
 20
9.268968364952091
 40
0.2665063509460737
100
AcDbArc
 50
270.0000000000007
 51
90
  0
LINE
  5
EC
100
AcDbEntity
  8
Yellow
  6
ByLayer
 62
  256
370
   -1
100
AcDbLine
 10
-2.980474438374843
 20
10.55350425850041
 11
-2.980474438374843
 21
9.18747885471597
  0
LINE
  5
ED
100
AcDbEntity
  8
Yellow
  6
ByLayer
 62
  256
370
   -1
100
AcDbLine
 10
-2.98047443837484
 20
10.55350425850034
 11
-1.980474438374808
 21
10.55350425850034
  0
LINE
  5
EE
100
AcDbEntity
  8
Yellow
  6
ByLayer
 62
  256
370
   -1
100
AcDbLine
 10
-2.980474438374843
 20
9.18747885471597
 11
-1.980474438374808
 21
9.18747885471597
  0
LINE
  5
EF
100
AcDbEntity
  8
Yellow
  6
ByLayer
 62
  256
370
   -1
100
AcDbLine
 10
-2.880474438374843
 20
9.920491556608191
 11
-1.980474438374808
 21
9.920491556608191
  0
LINE
  5
F0
100
AcDbEntity
  8
Yellow
  6
ByLayer
 62
  256
370
   -1
100
AcDbLine
 10
-2.880474438374843
 20
9.820491556608189
 11
-1.980474438374808
 21
9.820491556608189
  0
LINE
  5
F1
100
AcDbEntity
  8
Yellow
  6
ByLayer
 62
  256
370
   -1
100
AcDbLine
 10
-2.880474438374843
 20
9.287478854715971
 11
-1.980474438374808
 21
9.287478854715971
  0
LINE
  5
F2
100
AcDbEntity
  8
Yellow
  6
ByLayer
 62
  256
370
   -1
100
AcDbLine
 10
-2.880474438374843
 20
10.45350425850034
 11
-1.980474438374808
 21
10.45350425850034
  0
LINE
  5
F3
100
AcDbEntity
  8
Yellow
  6
ByLayer
 62
  256
370
   -1
100
AcDbLine
 10
-2.880474438374843
 20
10.45350425850034
 11
-2.880474438374843
 21
9.920491556608191
  0
LINE
  5
F4
100
AcDbEntity
  8
Yellow
  6
ByLayer
 62
  256
370
   -1
100
AcDbLine
 10
-2.880474438374843
 20
9.820491556608189
 11
-2.880474438374843
 21
9.287478854715971
  0
LINE
  5
F5
100
AcDbEntity
  8
Yellow
  6
ByLayer
 62
  256
370
   -1
100
AcDbLine
 10
-1.980474438374808
 20
9.18747885471597
 11
-1.980474438374808
 21
9.287478854715971
  0
LINE
  5
F6
100
AcDbEntity
  8
Yellow
  6
ByLayer
 62
  256
370
   -1
100
AcDbLine
 10
-1.980474438374808
 20
9.820491556608189
 11
-1.980474438374808
 21
9.920491556608191
  0
LINE
  5
F7
100
AcDbEntity
  8
Yellow
  6
ByLayer
 62
  256
370
   -1
100
AcDbLine
 10
-1.980474438374808
 20
10.45350425850034
 11
-1.980474438374808
 21
10.55350425850034
  0
LINE
  5
F8
100
AcDbEntity
  8
Yellow
  6
ByLayer
 62
  256
370
   -1
100
AcDbLine
 10
6.330953409839285
 20
8.16931750478965
 11
6.330953409839285
 21
6.803292101005209
  0
LINE
  5
F9
100
AcDbEntity
  8
Yellow
  6
ByLayer
 62
  256
370
   -1
100
AcDbLine
 10
7.330953409839285
 20
8.16931750478965
 11
7.330953409839285
 21
6.803292101005209
  0
LINE
  5
FA
100
AcDbEntity
  8
Yellow
  6
ByLayer
 62
  256
370
   -1
100
AcDbLine
 10
6.330953409839285
 20
6.803292101005209
 11
6.430953409839285
 21
6.803292101005209
  0
LINE
  5
FB
100
AcDbEntity
  8
Yellow
  6
ByLayer
 62
  256
370
   -1
100
AcDbLine
 10
7.230953409839286
 20
6.803292101005209
 11
7.330953409839285
 21
6.803292101005209
  0
LINE
  5
FC
100
AcDbEntity
  8
Yellow
  6
ByLayer
 62
  256
370
   -1
100
AcDbLine
 10
6.330953409839285
 20
8.16931750478965
 11
6.430953409839285
 21
8.16931750478965
  0
LINE
  5
FD
100
AcDbEntity
  8
Yellow
  6
ByLayer
 62
  256
370
   -1
100
AcDbLine
 10
7.230953409839286
 20
8.16931750478965
 11
7.330953409839285
 21
8.16931750478965
  0
LINE
  5
FE
100
AcDbEntity
  8
Yellow
  6
ByLayer
 62
  256
370
   -1
100
AcDbLine
 10
6.430953409839285
 20
7.990380495007489
 11
7.230953460841365
 21
6.803292130874098
  0
LINE
  5
FF
100
AcDbEntity
  8
Yellow
  6
ByLayer
 62
  256
370
   -1
100
AcDbLine
 10
6.430953358837295
 20
8.169317474920689
 11
7.230953409839286
 21
6.982229110787468
  0
LINE
  5
100
100
AcDbEntity
  8
Yellow
  6
ByLayer
 62
  256
370
   -1
100
AcDbLine
 10
6.430953409839285
 20
7.990380495007489
 11
6.430953409839285
 21
6.803292101005209
  0
LINE
  5
101
100
AcDbEntity
  8
Yellow
  6
ByLayer
 62
  256
370
   -1
100
AcDbLine
 10
7.230953409839286
 20
8.16931750478965
 11
7.230953409839286
 21
6.982229110787468
  0
LINE
  5
102
100
AcDbEntity
  8
Red
  6
ByLayer
 62
  256
370
   -1
100
AcDbLine
 10
-6.364430439714797
 20
-7.23387926341668
 11
-6.364430439714797
 21
-8.599904667201121
  0
LINE
  5
103
100
AcDbEntity
  8
Red
  6
ByLayer
 62
  256
370
   -1
100
AcDbLine
 10
-6.364430439714794
 20
-7.233879263416751
 11
-5.364430439714761
 21
-7.233879263416751
  0
LINE
  5
104
100
AcDbEntity
  8
Red
  6
ByLayer
 62
  256
370
   -1
100
AcDbLine
 10
-6.364430439714797
 20
-8.599904667201121
 11
-5.364430439714761
 21
-8.599904667201121
  0
LINE
  5
105
100
AcDbEntity
  8
Red
  6
ByLayer
 62
  256
370
   -1
100
AcDbLine
 10
-6.264430439714796
 20
-7.8668919653089
 11
-5.364430439714761
 21
-7.8668919653089
  0
LINE
  5
106
100
AcDbEntity
  8
Red
  6
ByLayer
 62
  256
370
   -1
100
AcDbLine
 10
-6.264430439714796
 20
-7.966891965308902
 11
-5.364430439714761
 21
-7.966891965308902
  0
LINE
  5
107
100
AcDbEntity
  8
Red
  6
ByLayer
 62
  256
370
   -1
100
AcDbLine
 10
-6.264430439714796
 20
-8.49990466720112
 11
-5.364430439714761
 21
-8.49990466720112
  0
LINE
  5
108
100
AcDbEntity
  8
Red
  6
ByLayer
 62
  256
370
   -1
100
AcDbLine
 10
-6.264430439714796
 20
-7.333879263416753
 11
-5.364430439714761
 21
-7.333879263416753
  0
LINE
  5
109
100
AcDbEntity
  8
Red
  6
ByLayer
 62
  256
370
   -1
100
AcDbLine
 10
-6.264430439714796
 20
-7.333879263416753
 11
-6.264430439714796
 21
-7.8668919653089
  0
LINE
  5
10A
100
AcDbEntity
  8
Red
  6
ByLayer
 62
  256
370
   -1
100
AcDbLine
 10
-6.264430439714796
 20
-7.966891965308902
 11
-6.264430439714796
 21
-8.49990466720112
  0
LINE
  5
10B
100
AcDbEntity
  8
Red
  6
ByLayer
 62
  256
370
   -1
100
AcDbLine
 10
-5.364430439714761
 20
-8.599904667201121
 11
-5.364430439714761
 21
-8.49990466720112
  0
LINE
  5
10C
100
AcDbEntity
  8
Red
  6
ByLayer
 62
  256
370
   -1
100
AcDbLine
 10
-5.364430439714761
 20
-7.966891965308902
 11
-5.364430439714761
 21
-7.8668919653089
  0
LINE
  5
10D
100
AcDbEntity
  8
Red
  6
ByLayer
 62
  256
370
   -1
100
AcDbLine
 10
-5.364430439714761
 20
-7.333879263416753
 11
-5.364430439714761
 21
-7.233879263416751
  0
LINE
  5
10E
100
AcDbEntity
  8
Red
  6
ByLayer
 62
  256
370
   -1
100
AcDbLine
 10
3.171993939942427
 20
-8.435397095222154
 11
3.171993939942427
 21
-9.801422499006595
  0
LINE
  5
10F
100
AcDbEntity
  8
Red
  6
ByLayer
 62
  256
370
   -1
100
AcDbLine
 10
4.171993939942427
 20
-8.435397095222154
 11
4.171993939942427
 21
-9.801422499006595
  0
LINE
  5
110
100
AcDbEntity
  8
Red
  6
ByLayer
 62
  256
370
   -1
100
AcDbLine
 10
3.171993939942427
 20
-9.801422499006595
 11
3.271993939942426
 21
-9.801422499006595
  0
LINE
  5
111
100
AcDbEntity
  8
Red
  6
ByLayer
 62
  256
370
   -1
100
AcDbLine
 10
4.071993939942427
 20
-9.801422499006595
 11
4.171993939942427
 21
-9.801422499006595
  0
LINE
  5
112
100
AcDbEntity
  8
Red
  6
ByLayer
 62
  256
370
   -1
100
AcDbLine
 10
3.171993939942427
 20
-8.435397095222154
 11
3.271993939942426
 21
-8.435397095222154
  0
LINE
  5
113
100
AcDbEntity
  8
Red
  6
ByLayer
 62
  256
370
   -1
100
AcDbLine
 10
4.071993939942427
 20
-8.435397095222154
 11
4.171993939942427
 21
-8.435397095222154
  0
LINE
  5
114
100
AcDbEntity
  8
Red
  6
ByLayer
 62
  256
370
   -1
100
AcDbLine
 10
3.271993939942426
 20
-8.614334105004314
 11
4.071993990944506
 21
-9.801422469137705
  0
LINE
  5
115
100
AcDbEntity
  8
Red
  6
ByLayer
 62
  256
370
   -1
100
AcDbLine
 10
3.271993888940436
 20
-8.435397125091114
 11
4.071993939942427
 21
-9.622485489224335
  0
LINE
  5
116
100
AcDbEntity
  8
Red
  6
ByLayer
 62
  256
370
   -1
100
AcDbLine
 10
3.271993939942426
 20
-8.614334105004314
 11
3.271993939942426
 21
-9.801422499006595
  0
LINE
  5
117
100
AcDbEntity
  8
Red
  6
ByLayer
 62
  256
370
   -1
100
AcDbLine
 10
4.071993939942427
 20
-8.435397095222154
 11
4.071993939942427
 21
-9.622485489224335
  0
LINE
  5
118
100
AcDbEntity
  8
Green
  6
ByLayer
 62
  256
370
   -1
100
AcDbLine
 10
5.364430439714795
 20
-7.233879263416684
 11
5.364430439714795
 21
-8.599904667201125
  0
LINE
  5
119
100
AcDbEntity
  8
Green
  6
ByLayer
 62
  256
370
   -1
100
AcDbLine
 10
5.364430439714797
 20
-7.233879263416755
 11
6.36443043971483
 21
-7.233879263416755
  0
LINE
  5
11A
100
AcDbEntity
  8
Green
  6
ByLayer
 62
  256
370
   -1
100
AcDbLine
 10
5.364430439714795
 20
-8.599904667201125
 11
6.36443043971483
 21
-8.599904667201125
  0
LINE
  5
11B
100
AcDbEntity
  8
Green
  6
ByLayer
 62
  256
370
   -1
100
AcDbLine
 10
5.464430439714795
 20
-7.866891965308904
 11
6.36443043971483
 21
-7.866891965308904
  0
LINE
  5
11C
100
AcDbEntity
  8
Green
  6
ByLayer
 62
  256
370
   -1
100
AcDbLine
 10
5.464430439714795
 20
-7.966891965308905
 11
6.36443043971483
 21
-7.966891965308905
  0
LINE
  5
11D
100
AcDbEntity
  8
Green
  6
ByLayer
 62
  256
370
   -1
100
AcDbLine
 10
5.464430439714795
 20
-8.499904667201124
 11
6.36443043971483
 21
-8.499904667201124
  0
LINE
  5
11E
100
AcDbEntity
  8
Green
  6
ByLayer
 62
  256
370
   -1
100
AcDbLine
 10
5.464430439714795
 20
-7.333879263416756
 11
6.36443043971483
 21
-7.333879263416756
  0
LINE
  5
11F
100
AcDbEntity
  8
Green
  6
ByLayer
 62
  256
370
   -1
100
AcDbLine
 10
5.464430439714795
 20
-7.333879263416756
 11
5.464430439714795
 21
-7.866891965308904
  0
LINE
  5
120
100
AcDbEntity
  8
Green
  6
ByLayer
 62
  256
370
   -1
100
AcDbLine
 10
5.464430439714795
 20
-7.966891965308905
 11
5.464430439714795
 21
-8.499904667201124
  0
LINE
  5
121
100
AcDbEntity
  8
Green
  6
ByLayer
 62
  256
370
   -1
100
AcDbLine
 10
6.36443043971483
 20
-8.599904667201125
 11
6.36443043971483
 21
-8.499904667201124
  0
LINE
  5
122
100
AcDbEntity
  8
Green
  6
ByLayer
 62
  256
370
   -1
100
AcDbLine
 10
6.36443043971483
 20
-7.966891965308905
 11
6.36443043971483
 21
-7.866891965308904
  0
LINE
  5
123
100
AcDbEntity
  8
Green
  6
ByLayer
 62
  256
370
   -1
100
AcDbLine
 10
6.36443043971483
 20
-7.333879263416756
 11
6.36443043971483
 21
-7.233879263416755
  0
LINE
  5
124
100
AcDbEntity
  8
Green
  6
ByLayer
 62
  256
370
   -1
100
AcDbLine
 10
-4.171993939942428
 20
-8.435397095222154
 11
-4.171993939942428
 21
-9.801422499006595
  0
LINE
  5
125
100
AcDbEntity
  8
Green
  6
ByLayer
 62
  256
370
   -1
100
AcDbLine
 10
-3.171993939942428
 20
-8.435397095222154
 11
-3.171993939942428
 21
-9.801422499006595
  0
LINE
  5
126
100
AcDbEntity
  8
Green
  6
ByLayer
 62
  256
370
   -1
100
AcDbLine
 10
-4.171993939942428
 20
-9.801422499006595
 11
-4.071993939942429
 21
-9.801422499006595
  0
LINE
  5
127
100
AcDbEntity
  8
Green
  6
ByLayer
 62
  256
370
   -1
100
AcDbLine
 10
-3.271993939942428
 20
-9.801422499006595
 11
-3.171993939942428
 21
-9.801422499006595
  0
LINE
  5
128
100
AcDbEntity
  8
Green
  6
ByLayer
 62
  256
370
   -1
100
AcDbLine
 10
-4.171993939942428
 20
-8.435397095222154
 11
-4.071993939942429
 21
-8.435397095222154
  0
LINE
  5
129
100
AcDbEntity
  8
Green
  6
ByLayer
 62
  256
370
   -1
100
AcDbLine
 10
-3.271993939942428
 20
-8.435397095222154
 11
-3.171993939942428
 21
-8.435397095222154
  0
LINE
  5
12A
100
AcDbEntity
  8
Green
  6
ByLayer
 62
  256
370
   -1
100
AcDbLine
 10
-4.071993939942429
 20
-8.614334105004314
 11
-3.271993888940349
 21
-9.801422469137705
  0
LINE
  5
12B
100
AcDbEntity
  8
Green
  6
ByLayer
 62
  256
370
   -1
100
AcDbLine
 10
-4.071993990944419
 20
-8.435397125091114
 11
-3.271993939942428
 21
-9.622485489224335
  0
LINE
  5
12C
100
AcDbEntity
  8
Green
  6
ByLayer
 62
  256
370
   -1
100
AcDbLine
 10
-4.071993939942429
 20
-8.614334105004314
 11
-4.071993939942429
 21
-9.801422499006595
  0
LINE
  5
12D
100
AcDbEntity
  8
Green
  6
ByLayer
 62
  256
370
   -1
100
AcDbLine
 10
-3.271993939942428
 20
-8.435397095222154
 11
-3.271993939942428
 21
-9.622485489224335
  0
CIRCLE
  5
12E
100
AcDbEntity
  8
Yellow
  6
ByLayer
 62
  256
370
   -1
100
AcDbCircle
 10
1.25004228985269
 20
-9.046562088380027
 40
0.125
  0
LINE
  5
12F
100
AcDbEntity
  8
Yellow
  6
ByLayer
 62
  256
370
   -1
100
AcDbLine
 10
1.12504228985269
 20
-10.42156208838003
 11
1.37504228985269
 21
-10.42156208838003
  0
LINE
  5
130
100
AcDbEntity
  8
Yellow
  6
ByLayer
 62
  256
370
   -1
100
AcDbLine
 10
1.12504228985269
 20
-9.421562088380027
 11
1.37504228985269
 21
-9.421562088380027
  0
LINE
  5
131
100
AcDbEntity
  8
Yellow
  6
ByLayer
 62
  256
370
   -1
100
AcDbLine
 10
1.200042289852689
 20
-9.521562088380028
 11
1.200042289852689
 21
-10.32156208838003
  0
LINE
  5
132
100
AcDbEntity
  8
Yellow
  6
ByLayer
 62
  256
370
   -1
100
AcDbLine
 10
1.300042289852691
 20
-9.521562088380028
 11
1.300042289852691
 21
-10.32156208838003
  0
LINE
  5
133
100
AcDbEntity
  8
Yellow
  6
CONTINUOUS
 62
    7
370
   -3
100
AcDbLine
 10
1.12504228985269
 20
-9.521562088380028
 11
1.200042289852689
 21
-9.521562088380028
  0
LINE
  5
134
100
AcDbEntity
  8
Yellow
  6
CONTINUOUS
 62
    7
370
   -3
100
AcDbLine
 10
1.300042289852691
 20
-9.521562088380028
 11
1.37504228985269
 21
-9.521562088380028
  0
LINE
  5
135
100
AcDbEntity
  8
Yellow
  6
CONTINUOUS
 62
    7
370
   -3
100
AcDbLine
 10
1.12504228985269
 20
-10.32156208838003
 11
1.200042289852689
 21
-10.32156208838003
  0
LINE
  5
136
100
AcDbEntity
  8
Yellow
  6
CONTINUOUS
 62
    7
370
   -3
100
AcDbLine
 10
1.300042289852691
 20
-10.32156208838003
 11
1.37504228985269
 21
-10.32156208838003
  0
LINE
  5
137
100
AcDbEntity
  8
Yellow
  6
ByLayer
 62
  256
370
   -1
100
AcDbLine
 10
1.12504228985269
 20
-9.421562088380027
 11
1.12504228985269
 21
-9.521562088380028
  0
LINE
  5
138
100
AcDbEntity
  8
Yellow
  6
ByLayer
 62
  256
370
   -1
100
AcDbLine
 10
1.37504228985269
 20
-9.421562088380027
 11
1.37504228985269
 21
-9.521562088380028
  0
LINE
  5
139
100
AcDbEntity
  8
Yellow
  6
ByLayer
 62
  256
370
   -1
100
AcDbLine
 10
1.12504228985269
 20
-10.32156208838003
 11
1.12504228985269
 21
-10.42156208838003
  0
LINE
  5
13A
100
AcDbEntity
  8
Yellow
  6
ByLayer
 62
  256
370
   -1
100
AcDbLine
 10
1.37504228985269
 20
-10.32156208838003
 11
1.37504228985269
 21
-10.42156208838003
  0
ARC
  5
13B
100
AcDbEntity
  8
G_Carolingian
  6
ByLayer
 62
  256
370
   -1
100
AcDbCircle
 10
-1.250042289852694
 20
-9.921562088380027
 40
0.9
100
AcDbArc
 50
54.24890078881111
 51
90
  0
ARC
  5
13C
100
AcDbEntity
  8
G_Carolingian
  6
ByLayer
 62
  256
370
   -1
100
AcDbCircle
 10
-1.250042289852694
 20
-9.921562088380027
 40
1
100
AcDbArc
 50
46.92048285812719
 51
89.9999999999998
  0
LINE
  5
13D
100
AcDbEntity
  8
G_Carolingian
  6
ByLayer
 62
  256
370
   -1
100
AcDbLine
 10
-0.7242035779399743
 20
-9.191155592616267
 11
-0.5670295879604232
 21
-9.191155592616267
  0
LINE
  5
13E
100
AcDbEntity
  8
G_Carolingian
  6
ByLayer
 62
  256
370
   -1
100
AcDbLine
 10
-1.250042289852694
 20
-10.03005573743391
 11
-1.150042289852692
 21
-10.03005573743391
  0
LINE
  5
13F
100
AcDbEntity
  8
G_Carolingian
  6
ByLayer
 62
  256
370
   -1
100
AcDbLine
 10
-0.6756697534552139
 20
-9.838549386487847
 11
-1.150042289852692
 21
-9.838549386487847
  0
LINE
  5
140
100
AcDbEntity
  8
G_Carolingian
  6
ByLayer
 62
  256
370
   -1
100
AcDbLine
 10
-1.150042289852692
 20
-9.838549386487847
 11
-1.150042289852692
 21
-10.03005573743391
  0
LINE
  5
141
100
AcDbEntity
  8
G_Carolingian
  6
ByLayer
 62
  256
370
   -1
100
AcDbLine
 10
-0.5670295879606044
 20
-9.738549386487845
 11
-1.250042289852694
 21
-9.738549386487845
  0
LINE
  5
142
100
AcDbEntity
  8
G_Carolingian
  6
ByLayer
 62
  256
370
   -1
100
AcDbLine
 10
-1.250042289852694
 20
-9.738549386487845
 11
-1.250042289852694
 21
-10.03005573743391
  0
ARC
  5
143
100
AcDbEntity
  8
G_Carolingian
  6
CONTINUOUS
 62
  256
370
   -3
100
AcDbCircle
 10
-1.250042289852694
 20
-9.738549386487845
 40
0.683012701892185
100
AcDbArc
 50
180
 51
359.9999999999997
  0
ARC
  5
144
100
AcDbEntity
  8
G_Carolingian
  6
CONTINUOUS
 62
  256
370
   -3
100
AcDbCircle
 10
-1.250042289852694
 20
-9.738549386487845
 40
0.583012701892185
100
AcDbArc
 50
180.0000000000003
 51
350.1236274390974
  0
LINE
  5
145
100
AcDbEntity
  8
G_Carolingian
  6
ByLayer
 62
  256
370
   -1
100
AcDbLine
 10
-1.933054991744875
 20
-9.604574790272105
 11
-1.933054991744875
 21
-9.738549386487845
  0
LINE
  5
146
100
AcDbEntity
  8
G_Carolingian
  6
ByLayer
 62
  256
370
   -1
100
AcDbLine
 10
-1.833054991744874
 20
-9.604574790272116
 11
-1.833054991744714
 21
-9.738549386487845
  0
ARC
  5
147
100
AcDbEntity
  8
G_Carolingian
  6
ByLayer
 62
  256
370
   -1
100
AcDbCircle
 10
-1.250042289852694
 20
-9.604574790272105
 40
0.5830127018921836
100
AcDbArc
 50
90
 51
180
  0
ARC
  5
148
100
AcDbEntity
  8
G_Carolingian
  6
ByLayer
 62
  256
370
   -1
100
AcDbCircle
 10
-1.250042289852694
 20
-9.604574790272105
 40
0.683012701892185
100
AcDbArc
 50
90
 51
180
  0
CIRCLE
  5
149
100
AcDbEntity
  8
Background
  6
ByLayer
 62
  256
370
   -1
100
AcDbCircle
 10
0
 20
0
 40
11.25
  0
LINE
  5
14A
100
AcDbEntity
  8
Green
  6
ByLayer
 62
  256
370
   -1
100
AcDbLine
 10
-1.798517788150231
 20
5.31731326070858
 11
-0.8175526812522937
 21
4.042184626292273
  0
LINE
  5
14B
100
AcDbEntity
  8
Green
  6
ByLayer
 62
  256
370
   -1
100
AcDbLine
 10
-0.8175526812522937
 20
4.042184626292273
 11
0.7251257208943197
 21
4.498680982039007
  0
LINE
  5
14C
100
AcDbEntity
  8
Green
  6
ByLayer
 62
  256
370
   -1
100
AcDbLine
 10
0.7251257208943197
 20
4.498680982039007
 11
-0.2569451283935766
 21
5.770400882549
  0
LINE
  5
14D
100
AcDbEntity
  8
Green
  6
ByLayer
 62
  256
370
   -1
100
AcDbLine
 10
-0.2569451283935766
 20
5.770400882549
 11
-1.798517788150231
 21
5.31731326070858
  0
ARC
  5
14E
100
AcDbEntity
  8
Yellow
  6
CONTINUOUS
 62
  256
370
   -3
100
AcDbCircle
 10
-4.375000000000001
 20
5.357652797972901e-16
 40
2.874999999999999
100
AcDbArc
 50
106.3787257703919
 51
270.0000021064994
  0
LINE
  5
14F
100
AcDbEntity
  8
Yellow
  6
CONTINUOUS
 62
  256
370
   -3
100
AcDbLine
 10
-5.185707599636931
 20
2.758328875948429
 11
-0.8175526812522937
 21
4.042184626292273
  0
LINE
  5
150
100
AcDbEntity
  8
Yellow
  6
CONTINUOUS
 62
  256
370
   -3
100
AcDbLine
 10
-5.60868547770837
 20
4.197456985138915
 11
-1.79851778815023
 21
5.31731326070858
  0
ARC
  5
151
100
AcDbEntity
  8
Yellow
  6
CONTINUOUS
 62
  256
370
   -3
100
AcDbCircle
 10
-4.375000000000001
 20
5.357652797972901e-16
 40
4.374999999999999
100
AcDbArc
 50
106.3787257611304
 51
269.9999999999999
  0
LINE
  5
152
100
AcDbEntity
  8
Blue
  6
CONTINUOUS
 62
  256
370
   -3
100
AcDbLine
 10
-0.5441371372397558
 20
6.14229644709198
 11
-0.2569451283935773
 21
5.770400882549
  0
LINE
  5
153
100
AcDbEntity
  8
Blue
  6
CONTINUOUS
 62
  256
370
   -3
100
AcDbLine
 10
-0.2569451283935766
 20
5.770400882549
 11
0.1938648607827439
 21
5.902899616621028
  0
ARC
  5
154
100
AcDbEntity
  8
Blue
  6
CONTINUOUS
 62
  256
370
   -3
100
AcDbCircle
 10
1.504115932643666e-16
 20
6.5625
 40
0.6875
100
AcDbArc
 50
286.3787265510963
 51
217.6767024395672
  0
ARC
  5
155
100
AcDbEntity
  8
Blue
  6
CONTINUOUS
 62
  256
370
   -3
100
AcDbCircle
 10
1.504115932643666e-16
 20
6.5625
 40
2.1875
100
AcDbArc
 50
289.3589971407988
 51
214.6964249622947
  0
LINE
  5
156
100
AcDbEntity
  8
Red
  6
ByLayer
 62
  256
370
   -1
100
AcDbLine
 10
5.682519898598747
 20
-4.375000000000003
 11
7.577722283113836
 21
-4.375000000000004
  0
MTEXT
  5
157
100
AcDbEntity
  8
Text
  6
ByLayer
 62
  256
370
   -1
100
AcDbMText
 10
0
 20
-25
 30
0
 40
2
 41
23.94577867723737
 71
    5
 72
    1
  1
Ampersand Engine\PLogo, devised by\PFelipe Lohan\PPinheiro da Silva
  7
unicode
210
0
220
0
230
1
 50
0
 73
    2
 44
1
  0
LINE
  5
158
100
AcDbEntity
  8
Text
  6
ByLayer
 62
  256
370
   -1
100
AcDbLine
 10
-12.5
 20
-12.5
 11
-12.5
 21
-37.5
  0
LINE
  5
159
100
AcDbEntity
  8
Text
  6
ByLayer
 62
  256
370
   -1
100
AcDbLine
 10
12.5
 20
-12.5
 11
12.5
 21
-37.5
  0
LINE
  5
15A
100
AcDbEntity
  8
Red
  6
ByLayer
 62
  256
370
   -1
100
AcDbLine
 10
3.607785882267607
 20
-1.688350112421624
 11
-0.8175526812522937
 21
4.042184626292273
  0
LINE
  5
15B
100
AcDbEntity
  8
Red
  6
ByLayer
 62
  256
370
   -1
100
AcDbLine
 10
5.682519898598747
 20
-4.375000000000003
 11
4.524772373289933
 21
-2.875789867890894
  0
LINE
  5
15C
100
AcDbEntity
  8
Red
  6
ByLayer
 62
  256
370
   -1
100
AcDbLine
 10
4.700854498974434
 20
-0.6496374002659834
 11
0.725125720894321
 21
4.498680982039003
  0
LINE
  5
15D
100
AcDbEntity
  8
Red
  6
ByLayer
 62
  256
370
   -1
100
AcDbLine
 10
7.577722283113836
 20
-4.375000000000004
 11
5.636829446380164
 21
-1.861666010887863
  0
LINE
  5
15E
100
AcDbEntity
  8
Yellow
  6
ByLayer
 62
  256
370
   -1
100
AcDbLine
 10
6.077722283113836
 20
3.202722283113838
 11
7.577722283113836
 21
3.202722283113838
  0
LINE
  5
15F
100
AcDbEntity
  8
Yellow
  6
ByLayer
 62
  256
370
   -1
100
AcDbLine
 10
-4.374999894299621
 20
-2.874999999999997
 11
-1.116422598700357e-15
 21
-2.874999999999998
  0
LINE
  5
160
100
AcDbEntity
  8
Yellow
  6
ByLayer
 62
  256
370
   -1
100
AcDbLine
 10
-4.37500000000001
 20
-4.374999999999998
 11
-1.391959028310392e-15
 21
-4.374999999999998
  0
ARC
  5
161
100
AcDbEntity
  8
Yellow
  6
ByLayer
 62
  256
370
   -1
100
AcDbCircle
 10
0
 20
3.202722283113838
 40
7.577722283113836
100
AcDbArc
 50
270
 51
306.6635598695713
  0
ARC
  5
162
100
AcDbEntity
  8
Yellow
  6
ByLayer
 62
  256
370
   -1
100
AcDbCircle
 10
0
 20
3.202722283113838
 40
7.577722283113836
100
AcDbArc
 50
318.0620095835004
 51
0
  0
ARC
  5
163
100
AcDbEntity
  8
Yellow
  6
ByLayer
 62
  256
370
   -1
100
AcDbCircle
 10
0
 20
3.202722283113838
 40
6.077722283113836
100
AcDbArc
 50
320.6653126842036
 51
0
  0
ARC
  5
164
100
AcDbEntity
  8
Yellow
  6
ByLayer
 62
  256
370
   -1
100
AcDbCircle
 10
0
 20
3.202722283113838
 40
6.077722283113836
100
AcDbArc
 50
270
 51
306.4134784495262
  0
ARC
  5
165
100
AcDbEntity
  8
Green
  6
ByLayer
 62
  256
370
   -1
100
AcDbCircle
 10
0
 20
3.202722283113838
 40
7.577722283113836
100
AcDbArc
 50
306.6635598695713
 51
318.0620095835004
  0
ARC
  5
166
100
AcDbEntity
  8
Green
  6
ByLayer
 62
  256
370
   -1
100
AcDbCircle
 10
0
 20
3.202722283113838
 40
6.077722283113836
100
AcDbArc
 50
306.4134784495262
 51
320.6653126842036
  0
LINE
  5
167
100
AcDbEntity
  8
Green
  6
ByLayer
 62
  256
370
   -1
100
AcDbLine
 10
4.524772373289933
 20
-2.875789867890894
 11
3.607785882267607
 21
-1.688350112421624
  0
LINE
  5
168
100
AcDbEntity
  8
Green
  6
ByLayer
 62
  256
370
   -1
100
AcDbLine
 10
5.636829446380164
 20
-1.861666010887863
 11
4.700854498974434
 21
-0.6496374002659834
  0
LINE
  5
169
100
AcDbEntity
  8
Text
  6
ByLayer
 62
  256
370
   -1
100
AcDbLine
 10
-12.5
 20
-37.5
 11
12.5
 21
-37.5
  0
ENDSEC
  0
SECTION
  2
OBJECTS
  0
DICTIONARY
  5
C
330
0
100
AcDbDictionary
281
    1
  3
ACAD_GROUP
350
D
  0
DICTIONARY
  5
D
330
C
100
AcDbDictionary
281
    1
  0
PLOTSETTINGS
  5
16A
100
AcDbPlotSettings
  6
1x1
 40
0
 41
0
 42
0
 43
0
  0
ENDSEC
  0
EOF
